<svg width="158" height="159" viewBox="0 0 158 159" fill="none" xmlns="http://www.w3.org/2000/svg">
<circle cx="3" cy="3" r="3" fill="#0074D9" fill-opacity="0.8"/>
<circle cx="3" cy="20" r="3" fill="#0074D9" fill-opacity="0.8"/>
<circle cx="3" cy="71" r="3" fill="#0074D9" fill-opacity="0.8"/>
<circle cx="3" cy="122" r="3" fill="#0074D9" fill-opacity="0.8"/>
<circle cx="3" cy="37" r="3" fill="#0074D9" fill-opacity="0.8"/>
<circle cx="3" cy="88" r="3" fill="#0074D9" fill-opacity="0.8"/>
<circle cx="3" cy="139" r="3" fill="#0074D9" fill-opacity="0.8"/>
<circle cx="3" cy="54" r="3" fill="#0074D9" fill-opacity="0.8"/>
<circle cx="3" cy="105" r="3" fill="#0074D9" fill-opacity="0.8"/>
<circle cx="3" cy="156" r="3" fill="#0074D9" fill-opacity="0.8"/>
<circle cx="53" cy="3" r="3" fill="#0074D9" fill-opacity="0.8"/>
<circle cx="53" cy="20" r="3" fill="#0074D9" fill-opacity="0.8"/>
<circle cx="53" cy="71" r="3" fill="#0074D9" fill-opacity="0.8"/>
<circle cx="53" cy="122" r="3" fill="#0074D9" fill-opacity="0.8"/>
<circle cx="53" cy="37" r="3" fill="#0074D9" fill-opacity="0.8"/>
<circle cx="53" cy="88" r="3" fill="#0074D9" fill-opacity="0.8"/>
<circle cx="53" cy="139" r="3" fill="#0074D9" fill-opacity="0.8"/>
<circle cx="53" cy="54" r="3" fill="#0074D9" fill-opacity="0.8"/>
<circle cx="53" cy="105" r="3" fill="#0074D9" fill-opacity="0.8"/>
<circle cx="53" cy="156" r="3" fill="#0074D9" fill-opacity="0.8"/>
<circle cx="121" cy="3" r="3" fill="#0074D9" fill-opacity="0.8"/>
<circle cx="121" cy="20" r="3" fill="#0074D9" fill-opacity="0.8"/>
<circle cx="121" cy="71" r="3" fill="#0074D9" fill-opacity="0.8"/>
<circle cx="121" cy="122" r="3" fill="#0074D9" fill-opacity="0.8"/>
<circle cx="121" cy="37" r="3" fill="#0074D9" fill-opacity="0.8"/>
<circle cx="121" cy="88" r="3" fill="#0074D9" fill-opacity="0.8"/>
<circle cx="121" cy="139" r="3" fill="#0074D9" fill-opacity="0.8"/>
<circle cx="121" cy="54" r="3" fill="#0074D9" fill-opacity="0.8"/>
<circle cx="121" cy="105" r="3" fill="#0074D9" fill-opacity="0.8"/>
<circle cx="121" cy="156" r="3" fill="#0074D9" fill-opacity="0.8"/>
<circle cx="19" cy="3" r="3" fill="#0074D9" fill-opacity="0.8"/>
<circle cx="19" cy="20" r="3" fill="#0074D9" fill-opacity="0.8"/>
<circle cx="19" cy="71" r="3" fill="#0074D9" fill-opacity="0.8"/>
<circle cx="19" cy="122" r="3" fill="#0074D9" fill-opacity="0.8"/>
<circle cx="19" cy="37" r="3" fill="#0074D9" fill-opacity="0.8"/>
<circle cx="19" cy="88" r="3" fill="#0074D9" fill-opacity="0.8"/>
<circle cx="19" cy="139" r="3" fill="#0074D9" fill-opacity="0.8"/>
<circle cx="19" cy="54" r="3" fill="#0074D9" fill-opacity="0.8"/>
<circle cx="19" cy="105" r="3" fill="#0074D9" fill-opacity="0.8"/>
<circle cx="19" cy="156" r="3" fill="#0074D9" fill-opacity="0.8"/>
<circle cx="71" cy="3" r="3" fill="#0074D9" fill-opacity="0.8"/>
<circle cx="71" cy="20" r="3" fill="#0074D9" fill-opacity="0.8"/>
<circle cx="71" cy="71" r="3" fill="#0074D9" fill-opacity="0.8"/>
<circle cx="71" cy="122" r="3" fill="#0074D9" fill-opacity="0.8"/>
<circle cx="71" cy="37" r="3" fill="#0074D9" fill-opacity="0.8"/>
<circle cx="71" cy="88" r="3" fill="#0074D9" fill-opacity="0.8"/>
<circle cx="71" cy="139" r="3" fill="#0074D9" fill-opacity="0.8"/>
<circle cx="71" cy="54" r="3" fill="#0074D9" fill-opacity="0.8"/>
<circle cx="71" cy="105" r="3" fill="#0074D9" fill-opacity="0.8"/>
<circle cx="71" cy="156" r="3" fill="#0074D9" fill-opacity="0.8"/>
<circle cx="139" cy="3" r="3" fill="#0074D9" fill-opacity="0.8"/>
<circle cx="139" cy="20" r="3" fill="#0074D9" fill-opacity="0.8"/>
<circle cx="139" cy="71" r="3" fill="#0074D9" fill-opacity="0.8"/>
<circle cx="139" cy="122" r="3" fill="#0074D9" fill-opacity="0.8"/>
<circle cx="139" cy="37" r="3" fill="#0074D9" fill-opacity="0.8"/>
<circle cx="139" cy="88" r="3" fill="#0074D9" fill-opacity="0.8"/>
<circle cx="139" cy="139" r="3" fill="#0074D9" fill-opacity="0.8"/>
<circle cx="139" cy="54" r="3" fill="#0074D9" fill-opacity="0.8"/>
<circle cx="139" cy="105" r="3" fill="#0074D9" fill-opacity="0.8"/>
<circle cx="139" cy="156" r="3" fill="#0074D9" fill-opacity="0.8"/>
<circle cx="37" cy="3" r="3" fill="#0074D9" fill-opacity="0.8"/>
<circle cx="37" cy="20" r="3" fill="#0074D9" fill-opacity="0.8"/>
<circle cx="37" cy="71" r="3" fill="#0074D9" fill-opacity="0.8"/>
<circle cx="37" cy="122" r="3" fill="#0074D9" fill-opacity="0.8"/>
<circle cx="37" cy="37" r="3" fill="#0074D9" fill-opacity="0.8"/>
<circle cx="37" cy="88" r="3" fill="#0074D9" fill-opacity="0.8"/>
<circle cx="37" cy="139" r="3" fill="#0074D9" fill-opacity="0.8"/>
<circle cx="37" cy="54" r="3" fill="#0074D9" fill-opacity="0.8"/>
<circle cx="37" cy="105" r="3" fill="#0074D9" fill-opacity="0.8"/>
<circle cx="37" cy="156" r="3" fill="#0074D9" fill-opacity="0.8"/>
<circle cx="105" cy="3" r="3" fill="#0074D9" fill-opacity="0.8"/>
<circle cx="105" cy="20" r="3" fill="#0074D9" fill-opacity="0.8"/>
<circle cx="105" cy="71" r="3" fill="#0074D9" fill-opacity="0.8"/>
<circle cx="105" cy="122" r="3" fill="#0074D9" fill-opacity="0.8"/>
<circle cx="105" cy="37" r="3" fill="#0074D9" fill-opacity="0.8"/>
<circle cx="105" cy="88" r="3" fill="#0074D9" fill-opacity="0.8"/>
<circle cx="105" cy="139" r="3" fill="#0074D9" fill-opacity="0.8"/>
<circle cx="105" cy="54" r="3" fill="#0074D9" fill-opacity="0.8"/>
<circle cx="105" cy="105" r="3" fill="#0074D9" fill-opacity="0.8"/>
<circle cx="105" cy="156" r="3" fill="#0074D9" fill-opacity="0.8"/>
<circle cx="87" cy="3" r="3" fill="#0074D9" fill-opacity="0.8"/>
<circle cx="87" cy="20" r="3" fill="#0074D9" fill-opacity="0.8"/>
<circle cx="87" cy="71" r="3" fill="#0074D9" fill-opacity="0.8"/>
<circle cx="87" cy="122" r="3" fill="#0074D9" fill-opacity="0.8"/>
<circle cx="87" cy="37" r="3" fill="#0074D9" fill-opacity="0.8"/>
<circle cx="87" cy="88" r="3" fill="#0074D9" fill-opacity="0.8"/>
<circle cx="87" cy="139" r="3" fill="#0074D9" fill-opacity="0.8"/>
<circle cx="87" cy="54" r="3" fill="#0074D9" fill-opacity="0.8"/>
<circle cx="87" cy="105" r="3" fill="#0074D9" fill-opacity="0.8"/>
<circle cx="87" cy="156" r="3" fill="#0074D9" fill-opacity="0.8"/>
<circle cx="155" cy="3" r="3" fill="#0074D9" fill-opacity="0.8"/>
<circle cx="155" cy="20" r="3" fill="#0074D9" fill-opacity="0.8"/>
<circle cx="155" cy="71" r="3" fill="#0074D9" fill-opacity="0.8"/>
<circle cx="155" cy="122" r="3" fill="#0074D9" fill-opacity="0.8"/>
<circle cx="155" cy="37" r="3" fill="#0074D9" fill-opacity="0.8"/>
<circle cx="155" cy="88" r="3" fill="#0074D9" fill-opacity="0.8"/>
<circle cx="155" cy="139" r="3" fill="#0074D9" fill-opacity="0.8"/>
<circle cx="155" cy="54" r="3" fill="#0074D9" fill-opacity="0.8"/>
<circle cx="155" cy="105" r="3" fill="#0074D9" fill-opacity="0.8"/>
<circle cx="155" cy="156" r="3" fill="#0074D9" fill-opacity="0.8"/>
</svg>
