<svg width="48" height="48" viewBox="0 0 48 48" fill="none" xmlns="http://www.w3.org/2000/svg">
<path d="M6 26.25C6 25.008 7.008 24 8.25 24H12.75C13.992 24 15 25.008 15 26.25V39.75C15 40.992 13.992 42 12.75 42H8.25C7.65326 42 7.08097 41.7629 6.65901 41.341C6.23705 40.919 6 40.3467 6 39.75V26.25ZM19.5 17.25C19.5 16.008 20.508 15 21.75 15H26.25C27.492 15 28.5 16.008 28.5 17.25V39.75C28.5 40.992 27.492 42 26.25 42H21.75C21.1533 42 20.581 41.7629 20.159 41.341C19.7371 40.919 19.5 40.3467 19.5 39.75V17.25ZM33 8.25C33 7.008 34.008 6 35.25 6H39.75C40.992 6 42 7.008 42 8.25V39.75C42 40.992 40.992 42 39.75 42H35.25C34.6533 42 34.081 41.7629 33.659 41.341C33.2371 40.919 33 40.3467 33 39.75V8.25Z" stroke="white" stroke-width="1.5" stroke-linecap="round" stroke-linejoin="round"/>
</svg>
