<svg width="598" height="442" viewBox="0 0 598 442" fill="none" xmlns="http://www.w3.org/2000/svg">
<g clip-path="url(#clip0_3_927)">
<path d="M424.465 324.181H102.434C99.5647 324.178 96.8139 323.037 94.7849 321.008C92.756 318.98 91.6147 316.229 91.6113 313.36V51.1802C91.6147 48.3113 92.756 45.5608 94.7849 43.5321C96.8139 41.5035 99.5647 40.3623 102.434 40.359H424.465C427.335 40.3623 430.085 41.5035 432.114 43.5321C434.143 45.5608 435.285 48.3113 435.288 51.1802V313.36C435.285 316.229 434.143 318.98 432.114 321.008C430.085 323.037 427.335 324.178 424.465 324.181Z" fill="#E6E6E6"/>
<path d="M109.736 48.0613C106.972 48.0645 104.322 49.1638 102.367 51.118C100.413 53.0721 99.3137 55.7217 99.3105 58.4852V306.061C99.3138 308.825 100.413 311.474 102.368 313.428C104.322 315.382 106.972 316.481 109.736 316.485H330.153C355.986 316.455 380.753 306.182 399.019 287.918C417.286 269.654 427.561 244.891 427.59 219.062V58.4852C427.587 55.7217 426.488 53.0721 424.533 51.118C422.579 49.1638 419.929 48.0645 417.165 48.0613L109.736 48.0613Z" fill="white"/>
<path d="M365.742 159.407H307.35C306.132 159.406 304.965 158.922 304.104 158.061C303.243 157.2 302.758 156.032 302.757 154.815V125.756C302.758 124.538 303.243 123.371 304.104 122.51C304.965 121.649 306.132 121.164 307.35 121.163H365.742C366.96 121.164 368.128 121.649 368.989 122.51C369.85 123.371 370.334 124.538 370.336 125.756C373.949 136.039 374.462 145.81 370.336 154.815C370.334 156.032 369.85 157.2 368.989 158.061C368.128 158.922 366.96 159.406 365.742 159.407Z" fill="#E6E6E6"/>
<path d="M358.825 156.599H309.215C308.18 156.598 307.188 156.186 306.457 155.455C305.725 154.723 305.314 153.731 305.312 152.697V128.009C305.314 126.974 305.725 125.982 306.457 125.251C307.188 124.519 308.18 124.108 309.215 124.106H358.825C359.86 124.108 360.852 124.519 361.583 125.251C362.315 125.982 362.726 126.974 362.728 128.008C366.076 136.801 366.614 145.121 362.728 152.697C362.726 153.731 362.315 154.723 361.583 155.455C360.852 156.186 359.86 156.598 358.825 156.599Z" fill="white"/>
<path d="M356.15 174.629H316.814C315.657 174.631 314.547 174.173 313.727 173.356C312.908 172.539 312.446 171.431 312.444 170.274C312.442 169.117 312.899 168.006 313.716 167.187C314.532 166.367 315.641 165.905 316.798 165.902H356.15C357.306 165.904 358.413 166.365 359.23 167.183C360.047 168.001 360.505 169.11 360.505 170.266C360.505 171.421 360.047 172.53 359.23 173.348C358.413 174.166 357.306 174.627 356.15 174.629Z" fill="#E6E6E6"/>
<path d="M329.702 130.773C329.25 130.774 328.816 130.955 328.496 131.275C328.177 131.595 327.997 132.029 327.996 132.481V150.977C327.996 151.276 328.074 151.569 328.223 151.828C328.372 152.087 328.586 152.302 328.845 152.452C329.103 152.602 329.396 152.682 329.695 152.683C329.993 152.684 330.287 152.607 330.547 152.459L346.874 143.151C347.137 143.001 347.355 142.785 347.506 142.524C347.658 142.263 347.737 141.966 347.736 141.664C347.735 141.362 347.654 141.066 347.501 140.806C347.349 140.545 347.129 140.33 346.866 140.182L330.539 130.994C330.284 130.85 329.996 130.773 329.702 130.773Z" fill="#E6E6E6"/>
<path d="M567.91 406.613C567.009 405.468 565.786 404.619 564.399 404.175C563.011 403.732 561.523 403.714 560.125 404.125L559.819 404.215L557.078 414.917C556.667 413.322 555.788 409.721 555.234 406.197L555.186 405.906L554.914 406.025C552.048 407.292 549.354 408.916 546.895 410.858C542.539 414.352 538.996 418.752 536.513 423.753C534.029 428.753 532.665 434.235 532.514 439.816L532.509 440.022L532.504 440.151L532.867 440.022L540.657 437.238C544.106 437.542 547.579 437.072 550.824 435.862C554.068 434.653 557.001 432.734 559.408 430.246C562.556 426.927 564.715 422.658 566.802 418.527C567.413 417.324 568.039 416.082 568.679 414.889C569.393 413.59 569.701 412.108 569.564 410.633C569.427 409.157 568.851 407.757 567.91 406.613Z" fill="#F2F2F2"/>
<path d="M368.979 133.702C369.135 134.512 369.467 135.278 369.952 135.946C370.436 136.614 371.061 137.167 371.783 137.568C372.504 137.968 373.305 138.205 374.128 138.263C374.951 138.32 375.777 138.196 376.547 137.9L399.829 164.98L402.776 154.983L379.695 130.208C379.112 128.948 378.086 127.944 376.812 127.389C375.539 126.834 374.106 126.765 372.785 127.196C371.464 127.626 370.347 128.527 369.646 129.726C368.944 130.925 368.707 132.34 368.979 133.702Z" fill="#FFB8B8"/>
<path d="M462.808 433.548H455.104L451.438 403.834H462.81L462.808 433.548Z" fill="#FFB6B6"/>
<path d="M462.603 431.032L454.376 427.686L454.141 427.59L449.599 431.032C447.035 431.032 444.575 432.051 442.762 433.864C440.949 435.677 439.93 438.136 439.929 440.7V441.014H464.771V431.032H462.603Z" fill="#2F2E41"/>
<path d="M517.771 433.548H510.066L506.401 403.834H517.772L517.771 433.548Z" fill="#FFB6B6"/>
<path d="M517.565 431.032L509.339 427.686L509.103 427.59L504.561 431.032C501.997 431.032 499.538 432.051 497.724 433.864C495.911 435.677 494.892 438.136 494.892 440.7V441.014H519.733V431.032H517.565Z" fill="#2F2E41"/>
<path d="M499.587 256.11C499.587 256.11 509.251 266.162 509.251 274.422C509.251 282.682 506.835 294.022 509.251 296.505C511.666 298.987 514.686 302.006 511.062 305.63C507.439 309.253 505.627 311.065 508.043 313.48C510.459 315.896 509.251 358.169 509.251 358.169L521.934 414.935H505.955L485.695 358.169L480.259 311.065L462.68 356.357L464.621 415.422L447.915 414.935L441 352.13C441 352.13 451.268 292.387 449.456 290.856C447.644 289.324 449.456 286.234 449.456 286.234L454.288 263.357L499.587 256.11Z" fill="#2F2E41"/>
<path d="M480.666 184.838C480.666 184.838 483.952 171.892 468.814 168.18C453.676 164.468 410.402 159.7 410.402 159.7L388.533 136.497L381.123 147.257L405.639 177.718L463.727 189.648L480.666 184.838Z" fill="#3F3D56"/>
<path d="M384.724 146.464C385.403 145.584 385.935 144.6 386.298 143.549L389.434 135.844L388.62 135.81C387.493 135.598 386.335 135.627 385.22 135.894C384.105 136.161 383.059 136.66 382.151 137.36C381.243 138.059 380.493 138.943 379.95 139.952C379.407 140.962 379.084 142.074 379.001 143.218C378.898 144.206 379.076 145.204 379.513 146.097C379.736 146.539 380.061 146.923 380.461 147.216C380.86 147.509 381.324 147.703 381.813 147.783C382.368 147.812 382.923 147.708 383.429 147.478C383.936 147.249 384.38 146.901 384.724 146.464Z" fill="#E6E6E6"/>
<path d="M451.204 266.442L449.392 279.575C449.392 279.575 453.016 283.466 454.828 282.98C456.64 282.494 463.284 279.662 463.284 279.662C463.284 279.662 471.135 283.953 475.363 284.439C479.591 284.926 501.939 282.007 502.543 280.548C503.147 279.089 510.167 273.377 510.167 273.377L507.374 256.714L451.204 266.442Z" fill="#E6E6E6"/>
<path d="M510.05 220.498C510.05 220.498 508.516 233.162 509.724 234.328C510.932 235.487 508.516 242.824 506.1 247.656C503.684 252.487 507.912 253.091 507.912 256.714C507.912 260.337 509.724 273.623 509.724 273.623C509.724 273.623 491 274.831 487.981 271.811C484.961 268.792 480.129 271.207 473.485 277.85C466.841 284.493 452.412 279.058 449.392 276.039C446.372 273.019 451.742 262.149 453.554 260.041C455.366 257.934 451.808 260.374 449.996 253.694C448.184 247.015 451.742 247.656 454.762 244.636C457.781 241.617 454.762 236.181 452.346 230.746C449.93 225.311 451.742 184.85 451.742 175.188C451.742 165.526 465.029 164.318 465.029 164.318L470.29 157.705L474.155 152.844L481.729 152.542L481.929 152.536L489.255 152.24L492.812 156.383L500.664 165.526L509.724 167.337C516.972 169.753 515.16 184.85 515.16 184.85L510.05 220.498Z" fill="#3F3D56"/>
<path d="M481.356 149.922C489.93 149.922 496.881 142.972 496.881 134.399C496.881 125.826 489.93 118.875 481.356 118.875C472.781 118.875 465.83 125.826 465.83 134.399C465.83 142.972 472.781 149.922 481.356 149.922Z" fill="#FFB6B6"/>
<path d="M499.357 129.177C495.087 126.558 495.634 119.712 491.52 117.321C489.475 116.142 487.175 115.475 484.817 115.376C482.458 115.277 480.111 115.749 477.974 116.752C475.076 115.513 471.604 116.502 469.286 118.74C466.968 120.979 465.713 124.281 465.343 127.602C465.075 130.939 465.315 134.297 466.053 137.562C466.284 136.25 466.514 134.939 466.744 133.627L478.984 130.952C477.9 131.925 476.817 132.899 475.733 133.872C481.276 135.134 487.092 134.225 491.986 131.331C497.314 133.719 496.348 139.083 491.671 146.201C493.483 149.22 504.223 132.16 499.357 129.177Z" fill="#2F2E41"/>
<path d="M492.813 156.383C492.778 156.411 492.742 156.437 492.704 156.461C491.424 157.224 489.96 157.621 488.47 157.609C486.52 157.771 484.584 157.164 483.076 155.918C482.285 155.169 479.138 156.751 477.073 157.627C474.906 158.525 472.477 158.553 470.29 157.705L474.156 152.844L480.526 151.432H482.117L489.255 152.24L492.813 156.383Z" fill="#E6E6E6"/>
<path d="M597.058 441.756L380.945 442C380.821 442.001 380.697 441.977 380.582 441.93C380.467 441.883 380.362 441.814 380.274 441.726C380.186 441.639 380.115 441.535 380.067 441.42C380.019 441.305 379.994 441.182 379.993 441.058C379.993 440.934 380.016 440.811 380.063 440.695C380.11 440.58 380.18 440.476 380.267 440.387C380.355 440.299 380.459 440.229 380.573 440.18C380.688 440.132 380.811 440.107 380.935 440.106H380.945L597.058 439.862C597.309 439.863 597.548 439.964 597.725 440.141C597.901 440.318 598 440.559 598 440.809C598 441.059 597.901 441.299 597.725 441.477C597.548 441.654 597.309 441.754 597.058 441.756Z" fill="#CACACA"/>
<path d="M338.292 123.8H336.702V10.0594H399.255V11.6498H338.292V123.8Z" fill="#3F3D56"/>
<path d="M447.904 0H405.754C403.013 0 400.383 1.08908 398.444 3.02764C396.505 4.9662 395.416 7.59544 395.416 10.337C395.416 13.0785 396.505 15.7078 398.444 17.6463C400.383 19.5849 403.013 20.674 405.754 20.674H447.904C450.645 20.674 453.275 19.5849 455.214 17.6463C457.153 15.7078 458.242 13.0785 458.242 10.337C458.242 7.59544 457.153 4.9662 455.214 3.02764C453.275 1.08908 450.645 0 447.904 0Z" fill="#0074D9"/>
<path d="M336.574 134.206C341.821 134.206 346.075 129.953 346.075 124.707C346.075 119.461 341.821 115.208 336.574 115.208C331.328 115.208 327.074 119.461 327.074 124.707C327.074 129.953 331.328 134.206 336.574 134.206Z" fill="#0074D9"/>
<path d="M222.095 160.4L263.772 150.757L275.735 147.989C277.231 147.643 276.609 145.339 275.112 145.686L233.436 155.329L221.473 158.097C219.976 158.443 220.598 160.746 222.095 160.4Z" fill="#F2F2F2"/>
<path d="M265.132 135.287L287.443 145.549C288.204 145.812 288.917 146.198 289.554 146.692C290.17 147.295 289.722 147.875 289.219 148.4C287.717 149.802 286.132 151.111 284.47 152.319L274.965 160.046C273.771 161.016 275.455 162.709 276.637 161.748L284.916 155.018L289.056 151.653C290.228 150.7 291.656 149.727 292.127 148.208C293.117 145.018 289.21 143.749 287.038 142.75L277.322 138.282L266.347 133.233C264.963 132.597 263.738 134.646 265.132 135.287Z" fill="#F2F2F2"/>
<path d="M573.021 213.406C569.046 210.711 564.218 209.71 559.498 209.371C554.133 209.079 548.756 209.085 543.392 209.389C537.82 209.61 532.259 210.013 526.71 210.599C521.169 211.185 515.65 211.954 510.155 212.904C505.236 213.67 500.367 214.735 495.577 216.094C491.043 217.349 486.773 219.411 482.971 222.181C479.633 224.691 477.067 228.086 475.563 231.981C474.086 235.635 473.835 239.668 474.848 243.476C475.387 245.326 476.31 247.041 477.557 248.51C478.999 250.121 480.707 251.473 482.606 252.506C486.549 254.758 491.016 256.111 494.583 258.993C495.523 259.747 496.38 260.599 497.14 261.535C497.655 262.259 498.368 262.82 499.194 263.151C499.976 263.424 500.821 263.46 501.623 263.253C502.426 263.047 503.149 262.607 503.702 261.99C504.416 261.013 505.012 259.954 505.476 258.836L507.357 255.207C507.483 254.89 507.64 254.586 507.827 254.3C507.968 254.132 507.716 254.304 507.764 254.259C507.791 254.235 507.845 254.236 507.876 254.216C508.031 254.139 508.194 254.077 508.361 254.03C510.102 253.367 511.85 252.724 513.605 252.102C520.086 249.793 526.645 247.664 533.308 245.94C536.736 245.021 540.213 244.293 543.723 243.762C548.268 243.114 552.882 243.189 557.449 242.747C562.365 242.27 567.438 241.276 571.653 238.569C575.14 236.451 577.825 233.237 579.29 229.43C579.925 227.616 580.142 225.682 579.927 223.772C579.379 219.451 576.555 215.802 573.021 213.406Z" fill="#E6E6E6"/>
<path d="M564.886 215.834C561.294 213.399 556.931 212.494 552.666 212.187C547.818 211.924 542.959 211.929 538.111 212.205C533.076 212.404 528.051 212.768 523.036 213.297C518.029 213.827 513.042 214.522 508.076 215.38C503.63 216.072 499.231 217.035 494.902 218.264C490.805 219.397 486.946 221.261 483.51 223.764C480.494 226.032 478.175 229.1 476.816 232.62C475.482 235.921 475.255 239.566 476.17 243.008C476.657 244.679 477.491 246.229 478.618 247.556C479.921 249.013 481.464 250.234 483.181 251.168C486.744 253.203 490.781 254.426 494.004 257.03C494.854 257.711 495.628 258.481 496.314 259.327C496.781 259.982 497.425 260.488 498.171 260.787C498.877 261.034 499.641 261.066 500.366 260.88C501.091 260.693 501.745 260.296 502.244 259.738C502.89 258.855 503.428 257.899 503.847 256.888L505.548 253.609C505.661 253.322 505.804 253.047 505.973 252.789C506.1 252.637 505.872 252.792 505.916 252.752C505.94 252.73 505.989 252.731 506.016 252.713C506.157 252.643 506.304 252.587 506.455 252.545C508.028 251.946 509.607 251.365 511.194 250.803C517.051 248.716 522.978 246.792 528.998 245.234C532.097 244.403 535.239 243.746 538.41 243.265C542.518 242.68 546.688 242.748 550.814 242.349C555.257 241.918 559.841 241.019 563.651 238.573C566.801 236.659 569.228 233.755 570.551 230.315C571.125 228.675 571.322 226.928 571.127 225.202C570.632 221.297 568.08 217.999 564.886 215.834Z" fill="white"/>
<path d="M557.363 220.231L498.831 231.025C498.663 231.057 498.491 231.055 498.324 231.021C498.158 230.986 497.999 230.919 497.858 230.823C497.718 230.727 497.597 230.604 497.504 230.461C497.411 230.319 497.347 230.159 497.315 229.992C497.284 229.824 497.286 229.652 497.321 229.485C497.356 229.319 497.424 229.161 497.52 229.02C497.617 228.88 497.74 228.76 497.883 228.667C498.026 228.574 498.186 228.51 498.353 228.48L498.361 228.478L556.893 217.684C557.061 217.653 557.232 217.656 557.399 217.691C557.565 217.727 557.723 217.795 557.863 217.891C558.003 217.987 558.122 218.11 558.215 218.253C558.307 218.396 558.371 218.555 558.402 218.723C558.433 218.89 558.43 219.061 558.395 219.228C558.359 219.394 558.291 219.552 558.195 219.692C558.098 219.832 557.975 219.951 557.832 220.044C557.69 220.136 557.53 220.2 557.363 220.231Z" fill="#E6E6E6"/>
<path d="M558.805 228.047L500.273 238.841C500.105 238.873 499.933 238.871 499.767 238.837C499.6 238.802 499.441 238.735 499.301 238.639C499.16 238.543 499.04 238.42 498.946 238.277C498.853 238.135 498.789 237.975 498.758 237.808C498.726 237.64 498.728 237.468 498.763 237.301C498.798 237.135 498.866 236.977 498.963 236.836C499.059 236.696 499.182 236.576 499.325 236.483C499.468 236.39 499.628 236.326 499.795 236.296L499.803 236.294L558.335 225.5C558.503 225.469 558.674 225.472 558.841 225.507C559.007 225.543 559.165 225.611 559.305 225.707C559.445 225.803 559.564 225.927 559.657 226.069C559.749 226.212 559.813 226.371 559.844 226.539C559.875 226.706 559.872 226.877 559.837 227.044C559.801 227.21 559.733 227.368 559.637 227.508C559.54 227.648 559.417 227.768 559.275 227.86C559.132 227.953 558.972 228.016 558.805 228.047Z" fill="#E6E6E6"/>
<path d="M508.535 245.399L501.714 246.657C501.377 246.718 501.029 246.642 500.748 246.448C500.466 246.253 500.273 245.954 500.21 245.617C500.148 245.28 500.222 244.933 500.416 244.65C500.61 244.368 500.908 244.173 501.245 244.11L508.066 242.852C508.403 242.791 508.751 242.866 509.033 243.061C509.315 243.255 509.508 243.554 509.571 243.891C509.633 244.228 509.559 244.576 509.365 244.859C509.171 245.142 508.872 245.336 508.535 245.399Z" fill="#E6E6E6"/>
<path d="M503.594 277.892C506.583 277.341 508.56 274.471 508.008 271.482C507.457 268.493 504.587 266.516 501.597 267.068C498.608 267.619 496.631 270.489 497.182 273.478C497.734 276.467 500.604 278.443 503.594 277.892Z" fill="#D1D3D4"/>
<path d="M200.678 157.935H150.683C148.362 157.932 146.137 157.009 144.496 155.368C142.855 153.728 141.931 151.503 141.929 149.182V116.237C141.931 113.916 142.855 111.692 144.496 110.051C146.137 108.41 148.362 107.487 150.683 107.484H200.678C202.999 107.487 205.224 108.41 206.865 110.051C208.506 111.692 209.43 113.916 209.432 116.237V149.182C209.43 151.503 208.506 153.728 206.865 155.368C205.224 157.009 202.999 157.932 200.678 157.935Z" fill="#E6E6E6"/>
<path d="M195.184 156.16H151.673C149.653 156.158 147.716 155.355 146.288 153.926C144.86 152.498 144.056 150.562 144.054 148.542V119.87C144.056 117.85 144.86 115.914 146.288 114.486C147.716 113.058 149.653 112.254 151.673 112.252H195.184C197.204 112.254 199.141 113.058 200.569 114.486C201.997 115.914 202.801 117.85 202.803 119.87V148.543C202.801 150.562 201.997 152.498 200.569 153.926C199.141 155.355 197.204 156.158 195.184 156.16Z" fill="white"/>
<path d="M207.72 187.617H143.569C143.173 187.616 142.793 187.458 142.513 187.177C142.233 186.897 142.076 186.517 142.076 186.12C142.076 185.724 142.233 185.344 142.513 185.063C142.793 184.783 143.173 184.624 143.569 184.624H207.72C208.116 184.624 208.496 184.783 208.776 185.063C209.056 185.344 209.213 185.724 209.213 186.12C209.213 186.517 209.056 186.897 208.776 187.177C208.496 187.458 208.116 187.616 207.72 187.617Z" fill="#E6E6E6"/>
<path d="M207.72 179.065H143.569C143.173 179.064 142.793 178.906 142.513 178.625C142.233 178.344 142.076 177.964 142.076 177.568C142.076 177.172 142.233 176.791 142.513 176.511C142.793 176.23 143.173 176.072 143.569 176.071H207.72C208.116 176.072 208.496 176.23 208.776 176.511C209.056 176.791 209.213 177.172 209.213 177.568C209.213 177.964 209.056 178.344 208.776 178.625C208.496 178.906 208.116 179.064 207.72 179.065Z" fill="#E6E6E6"/>
<path d="M207.72 196.169H143.569C143.172 196.169 142.791 196.011 142.511 195.731C142.23 195.45 142.072 195.069 142.072 194.672C142.072 194.275 142.23 193.895 142.511 193.614C142.791 193.333 143.172 193.176 143.569 193.176H207.72C208.117 193.176 208.497 193.333 208.778 193.614C209.059 193.895 209.217 194.275 209.217 194.672C209.217 195.069 209.059 195.45 208.778 195.731C208.497 196.011 208.117 196.169 207.72 196.169Z" fill="#E6E6E6"/>
<path d="M207.72 204.721H143.569C143.172 204.721 142.791 204.564 142.511 204.283C142.23 204.002 142.072 203.621 142.072 203.225C142.072 202.828 142.23 202.447 142.511 202.166C142.791 201.886 143.172 201.728 143.569 201.728H207.72C208.117 201.728 208.497 201.886 208.778 202.166C209.059 202.447 209.217 202.828 209.217 203.225C209.217 203.621 209.059 204.002 208.778 204.283C208.497 204.564 208.117 204.721 207.72 204.721Z" fill="#E6E6E6"/>
<path d="M207.72 213.273H143.569C143.172 213.273 142.791 213.116 142.511 212.835C142.23 212.554 142.072 212.174 142.072 211.777C142.072 211.38 142.23 210.999 142.511 210.719C142.791 210.438 143.172 210.28 143.569 210.28H207.72C208.117 210.28 208.497 210.438 208.778 210.719C209.059 210.999 209.217 211.38 209.217 211.777C209.217 212.174 209.059 212.554 208.778 212.835C208.497 213.116 208.117 213.273 207.72 213.273Z" fill="#E6E6E6"/>
<path d="M207.72 221.826H143.569C143.173 221.825 142.793 221.667 142.513 221.386C142.233 221.106 142.076 220.725 142.076 220.329C142.076 219.933 142.233 219.553 142.513 219.272C142.793 218.991 143.173 218.833 143.569 218.832H207.72C208.116 218.833 208.496 218.991 208.776 219.272C209.056 219.553 209.213 219.933 209.213 220.329C209.213 220.725 209.056 221.106 208.776 221.386C208.496 221.667 208.116 221.825 207.72 221.826Z" fill="#E6E6E6"/>
<path d="M172.437 202.212H174.028V263.473H58.9873V261.883H172.437V202.212Z" fill="#3F3D56"/>
<path d="M10.3384 273.532H52.4875C55.2294 273.532 57.8591 272.443 59.7979 270.505C61.7367 268.566 62.8259 265.937 62.8259 263.196C62.8259 260.454 61.7367 257.825 59.7979 255.886C57.8591 253.948 55.2294 252.859 52.4875 252.859H10.3384C7.59652 252.859 4.9669 253.948 3.02806 255.886C1.08923 257.825 0 260.454 0 263.196C0 265.937 1.08923 268.566 3.02806 270.505C4.9669 272.443 7.59652 273.532 10.3384 273.532Z" fill="#0074D9"/>
<path d="M174.34 206.828C179.587 206.828 183.84 202.576 183.84 197.33C183.84 192.083 179.587 187.831 174.34 187.831C169.093 187.831 164.84 192.083 164.84 197.33C164.84 202.576 169.093 206.828 174.34 206.828Z" fill="#0074D9"/>
<path d="M223.444 199.969C237.392 202.933 233.844 203.512 247.792 206.475L259.802 209.028C261.305 209.347 261.716 206.997 260.213 206.678C246.265 203.714 249.813 203.135 235.865 200.171L223.855 197.619C222.352 197.3 221.941 199.65 223.444 199.969Z" fill="#F2F2F2"/>
<path d="M255.569 193.034L271.443 211.769C272.022 212.33 272.505 212.981 272.873 213.698C273.176 214.505 272.524 214.841 271.846 215.104C269.893 215.74 267.902 216.255 265.885 216.647L254.003 219.627C252.511 220.001 253.321 222.247 254.798 221.876L265.147 219.281L270.322 217.983C271.788 217.615 273.493 217.337 274.563 216.161C276.81 213.688 273.806 210.886 272.261 209.063L265.348 200.903L257.539 191.687C256.555 190.525 254.577 191.863 255.569 193.034Z" fill="#F2F2F2"/>
<path d="M305.901 274.705C318.102 274.705 327.993 264.815 327.993 252.616C327.993 240.416 318.102 230.526 305.901 230.526C293.699 230.526 283.808 240.416 283.808 252.616C283.808 264.815 293.699 274.705 305.901 274.705Z" fill="#E6E6E6"/>
<path d="M303.747 271.889C313.023 271.889 320.543 264.37 320.543 255.096C320.543 245.821 313.023 238.303 303.747 238.303C294.471 238.303 286.952 245.821 286.952 255.096C286.952 264.37 294.471 271.889 303.747 271.889Z" fill="white"/>
<path d="M300.734 266.593C300.352 266.593 299.976 266.504 299.635 266.333C299.293 266.163 298.997 265.915 298.768 265.61L292.741 257.574C292.547 257.316 292.406 257.023 292.326 256.71C292.245 256.398 292.228 256.072 292.273 255.753C292.319 255.433 292.427 255.126 292.591 254.848C292.755 254.571 292.972 254.328 293.231 254.134C293.489 253.941 293.782 253.8 294.095 253.719C294.408 253.639 294.733 253.621 295.052 253.667C295.372 253.712 295.679 253.82 295.957 253.984C296.235 254.149 296.477 254.366 296.671 254.624L296.673 254.626L300.616 259.882L310.743 244.694C310.922 244.425 311.152 244.194 311.42 244.014C311.689 243.834 311.99 243.708 312.306 243.645C312.623 243.581 312.949 243.581 313.266 243.643C313.583 243.706 313.884 243.83 314.153 244.009C314.422 244.189 314.653 244.419 314.832 244.687C315.012 244.956 315.137 245.257 315.2 245.574C315.263 245.89 315.263 246.216 315.2 246.533C315.137 246.85 315.012 247.151 314.833 247.42L302.779 265.498C302.561 265.825 302.267 266.095 301.923 266.286C301.58 266.476 301.195 266.581 300.802 266.592C300.779 266.592 300.757 266.593 300.734 266.593Z" fill="#E6E6E6"/>
<path d="M512.191 275.371C512.902 274.953 513.513 274.384 513.981 273.704C514.448 273.024 514.761 272.25 514.897 271.437C515.033 270.623 514.989 269.789 514.768 268.994C514.547 268.199 514.154 267.463 513.618 266.836L531.357 235.842L520.948 236.408L505.315 266.442C504.322 267.413 503.719 268.715 503.622 270.101C503.524 271.487 503.939 272.86 504.786 273.961C505.634 275.061 506.856 275.813 508.221 276.073C509.585 276.333 510.998 276.083 512.191 275.371Z" fill="#FFB8B8"/>
<path d="M492.211 166.733C492.211 166.733 510.999 160.694 515.83 175.188C520.662 189.682 536.906 228.935 536.906 228.935L519.454 264.565L511.603 256.11L519.994 231.35L495.835 195.117L492.211 166.733Z" fill="#3F3D56"/>
<path d="M520.053 260.926C519.487 259.969 518.77 259.111 517.929 258.384L511.934 252.616L511.601 253.359C510.986 254.327 510.583 255.413 510.418 256.547C510.253 257.682 510.329 258.838 510.642 259.941C510.955 261.043 511.498 262.067 512.234 262.946C512.97 263.824 513.884 264.537 514.915 265.037C515.796 265.499 516.788 265.704 517.78 265.629C518.274 265.586 518.75 265.427 519.17 265.164C519.591 264.902 519.943 264.544 520.198 264.119C520.432 263.614 520.54 263.06 520.515 262.505C520.49 261.949 520.331 261.408 520.053 260.926Z" fill="#E6E6E6"/>
<path d="M305.71 282.333H304.119V343.594H357.924V342.004H305.71V282.333Z" fill="#3F3D56"/>
<path d="M416.911 343.317C416.909 340.576 415.819 337.948 413.88 336.01C411.942 334.072 409.314 332.982 406.573 332.98H364.424C361.682 332.98 359.052 334.069 357.114 336.007C355.175 337.946 354.085 340.575 354.085 343.317C354.085 346.058 355.175 348.688 357.114 350.626C359.052 352.565 361.682 353.654 364.424 353.654H406.573C409.314 353.651 411.942 352.561 413.88 350.623C415.819 348.685 416.909 346.057 416.911 343.317Z" fill="#0074D9"/>
<path d="M303.806 286.95C309.053 286.95 313.306 282.697 313.306 277.451C313.306 272.205 309.053 267.952 303.806 267.952C298.56 267.952 294.306 272.205 294.306 277.451C294.306 282.697 298.56 286.95 303.806 286.95Z" fill="#0074D9"/>
</g>
<defs>
<clipPath id="clip0_3_927">
<rect width="598" height="442" fill="white"/>
</clipPath>
</defs>
</svg>
