<svg width="1440" height="125" viewBox="0 0 1440 125" fill="none" xmlns="http://www.w3.org/2000/svg">
<g clip-path="url(#clip0_24_159)">
<path opacity="0.25" d="M1449.02 120.98L1448.92 74.6903C1390.95 52.6159 1323.31 42.7926 1257.38 47.1055C1172.12 52.6604 1092.23 80.7736 1006.83 85.1488C917.352 89.7028 827.987 68.6565 742.313 50.4621C658.324 32.6442 574.65 25.9456 488.508 37.9324C444.71 44.0273 403.894 55.9558 361.986 67.5467C249.78 98.58 100.181 138.194 -5.4009 71.6632L-5.28715 124.133L1449.02 120.98Z" fill="#0074D9"/>
<path opacity="0.5" d="M1449.02 120.98L1448.99 105.17C1433.18 84.0945 1415.4 64.193 1391.07 49.0557C1328.3 9.97167 1248.81 10.414 1176.65 29.9905C1138.92 40.2223 1103.88 56.2183 1068.06 70.026C1018.51 89.1335 965.475 116.249 909.613 120.04C865.675 122.985 823.667 110.806 790.049 88.7388C751.491 63.4323 714.387 26.9026 664.299 16.0112C615.266 5.32747 565.724 22.9149 519.975 40.6041C474.227 58.2934 428.972 79.8015 378.371 83.9612C305.995 89.9681 241.035 61.3789 173.593 45.5651C136.974 36.9845 102.076 39.5501 68.0627 53.2939C40.9028 64.2428 9.94878 80.3499 -5.33363 102.693L-5.28715 124.133L1449.02 120.98Z" fill="#0074D9"/>
<path d="M1449.02 120.98L1449.01 115.35C1267.19 62.3743 1068.21 50.4856 872.259 79.6605C820.162 87.4135 770.222 100.002 717.662 106.456C646.178 115.241 581.319 94.5113 516.94 71.4908C445.465 45.9357 375.05 28.0683 296.044 33.4796C191.192 40.7069 87.1349 79.6426 -5.2984 118.943L-5.28715 124.133L1449.02 120.98Z" fill="#0074D9"/>
</g>
<defs>
<clipPath id="clip0_24_159">
<rect width="1454.31" height="120" fill="white" transform="translate(1449.02 120.98) rotate(179.876)"/>
</clipPath>
</defs>
</svg>
