<svg width="48" height="48" viewBox="0 0 48 48" fill="none" xmlns="http://www.w3.org/2000/svg">
<path d="M17.25 24C17.25 24.1989 17.171 24.3897 17.0303 24.5303C16.8897 24.671 16.6989 24.75 16.5 24.75C16.3011 24.75 16.1103 24.671 15.9697 24.5303C15.829 24.3897 15.75 24.1989 15.75 24C15.75 23.8011 15.829 23.6103 15.9697 23.4697C16.1103 23.329 16.3011 23.25 16.5 23.25C16.6989 23.25 16.8897 23.329 17.0303 23.4697C17.171 23.6103 17.25 23.8011 17.25 24ZM17.25 24H16.5M24.75 24C24.75 24.1989 24.671 24.3897 24.5303 24.5303C24.3897 24.671 24.1989 24.75 24 24.75C23.8011 24.75 23.6103 24.671 23.4697 24.5303C23.329 24.3897 23.25 24.1989 23.25 24C23.25 23.8011 23.329 23.6103 23.4697 23.4697C23.6103 23.329 23.8011 23.25 24 23.25C24.1989 23.25 24.3897 23.329 24.5303 23.4697C24.671 23.6103 24.75 23.8011 24.75 24ZM24.75 24H24M32.25 24C32.25 24.1989 32.171 24.3897 32.0303 24.5303C31.8897 24.671 31.6989 24.75 31.5 24.75C31.3011 24.75 31.1103 24.671 30.9697 24.5303C30.829 24.3897 30.75 24.1989 30.75 24C30.75 23.8011 30.829 23.6103 30.9697 23.4697C31.1103 23.329 31.3011 23.25 31.5 23.25C31.6989 23.25 31.8897 23.329 32.0303 23.4697C32.171 23.6103 32.25 23.8011 32.25 24ZM32.25 24H31.5M42 24C42 33.112 33.94 40.5 24 40.5C22.2744 40.5021 20.5561 40.2755 18.89 39.826C16.5415 41.4777 13.6767 42.2282 10.82 41.94C10.5024 41.9094 10.1861 41.866 9.872 41.81C10.8577 40.6483 11.5309 39.2543 11.828 37.76C12.008 36.846 11.562 35.958 10.894 35.308C7.86 32.356 6 28.378 6 24C6 14.888 14.06 7.5 24 7.5C33.94 7.5 42 14.888 42 24Z" stroke="#FEF9F9" stroke-width="1.5" stroke-linecap="round" stroke-linejoin="round"/>
</svg>
