<svg width="525" height="389" viewBox="0 0 525 389" fill="none" xmlns="http://www.w3.org/2000/svg">
<g clip-path="url(#clip0_25_196)">
<path d="M153.195 38.277L158.744 46.9592L178.54 37.1343L188.718 34.0189C190.041 33.6142 191.234 32.8691 192.178 31.8581C193.123 30.8471 193.786 29.6057 194.101 28.2579C194.416 26.91 194.373 25.5029 193.975 24.1773C193.576 22.8516 192.838 21.6538 191.832 20.7035C190.342 19.2953 188.364 18.5217 186.315 18.546C184.266 18.5702 182.307 19.3904 180.85 20.8335L172.309 29.297L153.195 38.277Z" fill="#A0616A"/>
<path d="M162.559 46.5546L155.161 34.9783L127.108 47.3338C125.093 48.2211 123.342 49.6144 122.024 51.3786C120.705 53.1428 119.865 55.2181 119.583 57.4033C119.236 60.0977 119.756 62.8327 121.066 65.2118C122.376 67.5909 124.409 69.4904 126.87 70.6349L171.59 90.7673C174.677 92.2028 178.202 92.3731 181.412 91.2419C184.622 90.1106 187.264 87.7675 188.772 84.7131C189.583 83.0703 190.039 81.275 190.111 79.4439C190.183 77.6129 189.869 75.7871 189.19 74.0855C188.511 72.3839 187.481 70.8446 186.168 69.5677C184.855 68.2908 183.288 67.305 181.57 66.6744L148.024 55.0491L162.559 46.5546Z" fill="#0074D9"/>
<path d="M458.635 243.079C458.635 239.602 457.469 236.78 456.037 236.773H65.5974C64.1587 236.78 62.9987 239.602 62.9922 243.079V386.223C62.9923 386.545 62.8723 386.857 62.6556 387.096C62.4389 387.335 62.1411 387.485 61.8201 387.516C60.7722 387.617 59.7242 387.71 58.6763 387.797C58.6504 387.797 58.6245 387.804 58.5985 387.804C58.0283 387.855 57.458 387.894 56.8877 387.94H56.8812C56.5879 387.397 56.2979 386.849 56.0114 386.297C55.9145 386.111 55.8638 385.904 55.8638 385.694V234.898C55.8638 233.938 55.9027 232.971 55.9675 232.018C56.06 230.708 56.2222 229.404 56.4535 228.112C57.5487 222.085 60.0242 218.005 62.8367 217.992H458.791C459.201 217.994 459.607 218.08 459.983 218.245C460.536 218.489 461.036 218.84 461.454 219.276C462.023 219.868 462.509 220.533 462.9 221.255C464.286 223.701 465.278 227.347 465.628 231.589C465.628 231.628 465.634 231.667 465.634 231.706C465.725 232.757 465.77 233.828 465.764 234.898L465.855 248.801L465.913 257.092L466.088 283.107L466.153 292.346L466.438 387.194C466.438 387.538 466.301 387.868 466.058 388.111C465.815 388.354 465.486 388.491 465.142 388.491H459.932C459.588 388.491 459.258 388.354 459.015 388.111C458.772 387.868 458.635 387.538 458.635 387.194V243.079Z" fill="#E6E6E6"/>
<path d="M65.7629 313.973L57.3623 312.462L59.1833 279.304L71.5823 281.534L65.7629 313.973Z" fill="#A0616A"/>
<path d="M64.485 322.799L38.6514 318.155L38.71 317.828C39.189 315.158 40.7076 312.788 42.9318 311.24C45.156 309.691 47.9037 309.09 50.5704 309.569L50.5711 309.569L55.9327 306.833L64.0942 312L66.3493 312.406L64.485 322.799Z" fill="#2F2E41"/>
<path d="M269.504 278.975H217.991C216.611 278.973 215.287 278.423 214.311 277.446C213.335 276.469 212.786 275.144 212.784 273.762V226.578C212.786 225.196 213.335 223.871 214.311 222.894C215.287 221.917 216.611 221.367 217.991 221.366H269.504C270.884 221.367 272.208 221.917 273.184 222.894C274.16 223.871 274.709 225.196 274.711 226.578V273.762C274.709 275.144 274.16 276.469 273.184 277.446C272.208 278.423 270.884 278.973 269.504 278.975Z" fill="#3F3D56"/>
<path d="M265.883 274.63H221.612C220.386 274.629 219.211 274.141 218.344 273.273C217.478 272.405 216.99 271.229 216.989 270.002V230.339C216.99 229.112 217.478 227.935 218.344 227.068C219.211 226.2 220.386 225.712 221.612 225.71H265.883C267.109 225.712 268.284 226.2 269.151 227.068C270.017 227.935 270.505 229.112 270.506 230.339V270.002C270.505 271.229 270.017 272.405 269.151 273.273C268.284 274.141 267.109 274.629 265.883 274.63Z" fill="white"/>
<path d="M261.466 237.258H226.028C225.722 237.258 225.428 237.136 225.211 236.919C224.994 236.702 224.873 236.408 224.873 236.101C224.873 235.794 224.994 235.5 225.211 235.283C225.428 235.066 225.722 234.944 226.028 234.944H261.466C261.773 234.944 262.067 235.066 262.284 235.283C262.5 235.5 262.622 235.794 262.622 236.101C262.622 236.408 262.5 236.702 262.284 236.919C262.067 237.136 261.773 237.258 261.466 237.258Z" fill="#0074D9"/>
<path d="M261.466 241.83H226.028C225.722 241.83 225.428 241.708 225.211 241.491C224.994 241.274 224.873 240.979 224.873 240.673C224.873 240.366 224.994 240.071 225.211 239.854C225.428 239.637 225.722 239.516 226.028 239.516H261.466C261.773 239.516 262.067 239.637 262.284 239.854C262.5 240.071 262.622 240.366 262.622 240.673C262.622 240.979 262.5 241.274 262.284 241.491C262.067 241.708 261.773 241.83 261.466 241.83Z" fill="#0074D9"/>
<path d="M241.39 246.402H226.028C225.722 246.402 225.428 246.28 225.211 246.063C224.994 245.846 224.873 245.551 224.873 245.245C224.873 244.938 224.994 244.643 225.211 244.426C225.428 244.209 225.722 244.088 226.028 244.088H241.39C241.696 244.088 241.99 244.209 242.207 244.426C242.424 244.643 242.546 244.938 242.546 245.245C242.546 245.551 242.424 245.846 242.207 246.063C241.99 246.28 241.696 246.402 241.39 246.402Z" fill="#0074D9"/>
<path d="M261.466 255.977H226.028C225.722 255.977 225.428 255.855 225.211 255.638C224.994 255.421 224.873 255.127 224.873 254.82C224.873 254.513 224.994 254.219 225.211 254.002C225.428 253.785 225.722 253.663 226.028 253.663H261.466C261.773 253.663 262.067 253.785 262.284 254.002C262.5 254.219 262.622 254.513 262.622 254.82C262.622 255.127 262.5 255.421 262.284 255.638C262.067 255.855 261.773 255.977 261.466 255.977Z" fill="#E4E4E4"/>
<path d="M261.466 260.549H226.028C225.876 260.549 225.726 260.52 225.585 260.462C225.444 260.404 225.317 260.319 225.209 260.211C225.101 260.104 225.016 259.976 224.958 259.835C224.9 259.695 224.87 259.544 224.87 259.392C224.87 259.24 224.9 259.089 224.958 258.949C225.016 258.808 225.101 258.68 225.209 258.573C225.317 258.465 225.444 258.38 225.585 258.322C225.726 258.264 225.876 258.235 226.028 258.235H261.466C261.773 258.235 262.067 258.357 262.283 258.574C262.5 258.791 262.622 259.085 262.622 259.392C262.622 259.699 262.5 259.993 262.283 260.21C262.067 260.427 261.773 260.549 261.466 260.549Z" fill="#E4E4E4"/>
<path d="M241.39 265.121H226.028C225.722 265.121 225.428 264.999 225.211 264.782C224.994 264.565 224.873 264.271 224.873 263.964C224.873 263.657 224.994 263.363 225.211 263.146C225.428 262.929 225.722 262.807 226.028 262.807H241.39C241.696 262.807 241.99 262.929 242.207 263.146C242.424 263.363 242.546 263.657 242.546 263.964C242.546 264.271 242.424 264.565 242.207 264.782C241.99 264.999 241.696 265.121 241.39 265.121Z" fill="#E4E4E4"/>
<path d="M352.54 152.937H310.47C309.875 152.938 309.304 153.175 308.884 153.597C308.464 154.019 308.228 154.591 308.229 155.187V221.719H354.787V155.187C354.788 154.891 354.73 154.599 354.617 154.326C354.504 154.053 354.338 153.804 354.13 153.596C353.921 153.387 353.673 153.221 353.4 153.108C353.128 152.995 352.835 152.937 352.54 152.937ZM331.647 190.74C330.331 190.734 329.071 190.208 328.141 189.276C327.21 188.345 326.685 187.084 326.679 185.767V178.093C326.68 176.775 327.204 175.511 328.136 174.58C329.067 173.648 330.33 173.125 331.647 173.125C332.963 173.125 334.226 173.648 335.157 174.58C336.089 175.511 336.613 176.775 336.614 178.093V185.767C336.608 187.084 336.083 188.345 335.153 189.276C334.222 190.208 332.962 190.734 331.647 190.74Z" fill="#2F2E41"/>
<path d="M308.084 219.591V226.01C308.085 226.342 308.217 226.661 308.452 226.896C308.687 227.131 309.005 227.264 309.338 227.265H353.678C354.01 227.263 354.328 227.13 354.563 226.895C354.797 226.66 354.93 226.342 354.932 226.01V219.591H308.084Z" fill="#3F3D56"/>
<path d="M422.206 49.1061H242.371C240.825 49.1085 239.344 49.7241 238.252 50.8178C237.159 51.9115 236.544 53.3942 236.542 54.941V176.428C236.543 177.975 237.158 179.458 238.251 180.552C239.344 181.646 240.825 182.261 242.371 182.263H422.206C423.751 182.261 425.233 181.646 426.325 180.552C427.418 179.458 428.033 177.975 428.034 176.428V54.941C428.032 53.3942 427.417 51.9115 426.324 50.8178C425.232 49.7241 423.751 49.1085 422.206 49.1061Z" fill="#3F3D56"/>
<path d="M420.704 53.3206H243.873C243.046 53.3224 242.253 53.6526 241.669 54.2388C241.084 54.825 240.756 55.6194 240.756 56.4476V174.923C240.757 175.751 241.086 176.543 241.67 177.128C242.255 177.713 243.047 178.043 243.873 178.044H420.704C421.531 178.043 422.323 177.713 422.907 177.128C423.491 176.543 423.82 175.751 423.822 174.923V56.4476C423.821 55.6194 423.493 54.825 422.909 54.2388C422.324 53.6526 421.532 53.3224 420.704 53.3206Z" fill="white"/>
<path d="M386.261 229.498H281.055C280.767 229.498 280.483 229.434 280.223 229.31C279.963 229.186 279.734 229.005 279.553 228.782C279.371 228.558 279.242 228.296 279.174 228.016C279.107 227.736 279.102 227.444 279.162 227.162L280.794 219.4C280.887 218.966 281.125 218.577 281.47 218.297C281.814 218.017 282.244 217.863 282.688 217.862H384.628C385.072 217.863 385.502 218.017 385.846 218.297C386.191 218.577 386.429 218.966 386.522 219.4L388.154 227.162C388.214 227.444 388.209 227.736 388.142 228.016C388.074 228.296 387.945 228.558 387.763 228.782C387.582 229.005 387.353 229.186 387.093 229.31C386.833 229.434 386.549 229.498 386.261 229.498Z" fill="#2F2E41"/>
<path d="M286.358 219.259H283.751C283.576 219.259 283.435 219.401 283.435 219.576V220.889C283.435 221.064 283.576 221.206 283.751 221.206H286.358C286.533 221.206 286.675 221.064 286.675 220.889V219.576C286.675 219.401 286.533 219.259 286.358 219.259Z" fill="#3F3D56"/>
<path d="M292.839 219.259H290.231C290.057 219.259 289.915 219.401 289.915 219.576V220.889C289.915 221.064 290.057 221.206 290.231 221.206H292.839C293.014 221.206 293.155 221.064 293.155 220.889V219.576C293.155 219.401 293.014 219.259 292.839 219.259Z" fill="#3F3D56"/>
<path d="M299.319 219.259H296.712C296.537 219.259 296.396 219.401 296.396 219.576V220.889C296.396 221.064 296.537 221.206 296.712 221.206H299.319C299.494 221.206 299.636 221.064 299.636 220.889V219.576C299.636 219.401 299.494 219.259 299.319 219.259Z" fill="#3F3D56"/>
<path d="M305.8 219.259H303.192C303.018 219.259 302.876 219.401 302.876 219.576V220.889C302.876 221.064 303.018 221.206 303.192 221.206H305.8C305.975 221.206 306.116 221.064 306.116 220.889V219.576C306.116 219.401 305.975 219.259 305.8 219.259Z" fill="#3F3D56"/>
<path d="M312.28 219.259H309.673C309.498 219.259 309.356 219.401 309.356 219.576V220.889C309.356 221.064 309.498 221.206 309.673 221.206H312.28C312.455 221.206 312.597 221.064 312.597 220.889V219.576C312.597 219.401 312.455 219.259 312.28 219.259Z" fill="#3F3D56"/>
<path d="M318.761 219.259H316.153C315.979 219.259 315.837 219.401 315.837 219.576V220.889C315.837 221.064 315.979 221.206 316.153 221.206H318.761C318.935 221.206 319.077 221.064 319.077 220.889V219.576C319.077 219.401 318.935 219.259 318.761 219.259Z" fill="#3F3D56"/>
<path d="M325.241 219.259H322.634C322.459 219.259 322.317 219.401 322.317 219.576V220.889C322.317 221.064 322.459 221.206 322.634 221.206H325.241C325.416 221.206 325.558 221.064 325.558 220.889V219.576C325.558 219.401 325.416 219.259 325.241 219.259Z" fill="#3F3D56"/>
<path d="M331.722 219.259H329.114C328.939 219.259 328.798 219.401 328.798 219.576V220.889C328.798 221.064 328.939 221.206 329.114 221.206H331.722C331.896 221.206 332.038 221.064 332.038 220.889V219.576C332.038 219.401 331.896 219.259 331.722 219.259Z" fill="#3F3D56"/>
<path d="M338.202 219.259H335.595C335.42 219.259 335.278 219.401 335.278 219.576V220.889C335.278 221.064 335.42 221.206 335.595 221.206H338.202C338.377 221.206 338.519 221.064 338.519 220.889V219.576C338.519 219.401 338.377 219.259 338.202 219.259Z" fill="#3F3D56"/>
<path d="M344.683 219.259H342.075C341.9 219.259 341.759 219.401 341.759 219.576V220.889C341.759 221.064 341.9 221.206 342.075 221.206H344.683C344.857 221.206 344.999 221.064 344.999 220.889V219.576C344.999 219.401 344.857 219.259 344.683 219.259Z" fill="#3F3D56"/>
<path d="M351.163 219.259H348.555C348.38 219.259 348.239 219.401 348.239 219.576V220.889C348.239 221.064 348.38 221.206 348.555 221.206H351.163C351.337 221.206 351.479 221.064 351.479 220.889V219.576C351.479 219.401 351.337 219.259 351.163 219.259Z" fill="#3F3D56"/>
<path d="M357.643 219.259H355.036C354.861 219.259 354.719 219.401 354.719 219.576V220.889C354.719 221.064 354.861 221.206 355.036 221.206H357.643C357.818 221.206 357.959 221.064 357.959 220.889V219.576C357.959 219.401 357.818 219.259 357.643 219.259Z" fill="#3F3D56"/>
<path d="M364.124 219.259H361.516C361.341 219.259 361.2 219.401 361.2 219.576V220.889C361.2 221.064 361.341 221.206 361.516 221.206H364.124C364.298 221.206 364.44 221.064 364.44 220.889V219.576C364.44 219.401 364.298 219.259 364.124 219.259Z" fill="#3F3D56"/>
<path d="M370.604 219.259H367.997C367.822 219.259 367.68 219.401 367.68 219.576V220.889C367.68 221.064 367.822 221.206 367.997 221.206H370.604C370.779 221.206 370.92 221.064 370.92 220.889V219.576C370.92 219.401 370.779 219.259 370.604 219.259Z" fill="#3F3D56"/>
<path d="M377.084 219.259H374.477C374.302 219.259 374.161 219.401 374.161 219.576V220.889C374.161 221.064 374.302 221.206 374.477 221.206H377.084C377.259 221.206 377.401 221.064 377.401 220.889V219.576C377.401 219.401 377.259 219.259 377.084 219.259Z" fill="#3F3D56"/>
<path d="M383.565 219.259H380.957C380.783 219.259 380.641 219.401 380.641 219.576V220.889C380.641 221.064 380.783 221.206 380.957 221.206H383.565C383.74 221.206 383.881 221.064 383.881 220.889V219.576C383.881 219.401 383.74 219.259 383.565 219.259Z" fill="#3F3D56"/>
<path d="M286.282 222.503H283.674C283.5 222.503 283.358 222.645 283.358 222.82V224.133C283.358 224.308 283.5 224.449 283.674 224.449H286.282C286.456 224.449 286.598 224.308 286.598 224.133V222.82C286.598 222.645 286.456 222.503 286.282 222.503Z" fill="#3F3D56"/>
<path d="M292.762 222.503H290.155C289.98 222.503 289.838 222.645 289.838 222.82V224.133C289.838 224.308 289.98 224.449 290.155 224.449H292.762C292.937 224.449 293.079 224.308 293.079 224.133V222.82C293.079 222.645 292.937 222.503 292.762 222.503Z" fill="#3F3D56"/>
<path d="M299.243 222.503H296.635C296.46 222.503 296.319 222.645 296.319 222.82V224.133C296.319 224.308 296.46 224.449 296.635 224.449H299.243C299.417 224.449 299.559 224.308 299.559 224.133V222.82C299.559 222.645 299.417 222.503 299.243 222.503Z" fill="#3F3D56"/>
<path d="M305.723 222.503H303.116C302.941 222.503 302.799 222.645 302.799 222.82V224.133C302.799 224.308 302.941 224.449 303.116 224.449H305.723C305.898 224.449 306.04 224.308 306.04 224.133V222.82C306.04 222.645 305.898 222.503 305.723 222.503Z" fill="#3F3D56"/>
<path d="M312.204 222.503H309.596C309.421 222.503 309.28 222.645 309.28 222.82V224.133C309.28 224.308 309.421 224.449 309.596 224.449H312.204C312.378 224.449 312.52 224.308 312.52 224.133V222.82C312.52 222.645 312.378 222.503 312.204 222.503Z" fill="#3F3D56"/>
<path d="M318.684 222.503H316.077C315.902 222.503 315.76 222.645 315.76 222.82V224.133C315.76 224.308 315.902 224.449 316.077 224.449H318.684C318.859 224.449 319 224.308 319 224.133V222.82C319 222.645 318.859 222.503 318.684 222.503Z" fill="#3F3D56"/>
<path d="M325.165 222.503H322.557C322.382 222.503 322.241 222.645 322.241 222.82V224.133C322.241 224.308 322.382 224.449 322.557 224.449H325.165C325.339 224.449 325.481 224.308 325.481 224.133V222.82C325.481 222.645 325.339 222.503 325.165 222.503Z" fill="#3F3D56"/>
<path d="M331.645 222.503H329.038C328.863 222.503 328.721 222.645 328.721 222.82V224.133C328.721 224.308 328.863 224.449 329.038 224.449H331.645C331.82 224.449 331.961 224.308 331.961 224.133V222.82C331.961 222.645 331.82 222.503 331.645 222.503Z" fill="#3F3D56"/>
<path d="M338.125 222.503H335.518C335.343 222.503 335.202 222.645 335.202 222.82V224.133C335.202 224.308 335.343 224.449 335.518 224.449H338.125C338.3 224.449 338.442 224.308 338.442 224.133V222.82C338.442 222.645 338.3 222.503 338.125 222.503Z" fill="#3F3D56"/>
<path d="M344.606 222.503H341.998C341.824 222.503 341.682 222.645 341.682 222.82V224.133C341.682 224.308 341.824 224.449 341.998 224.449H344.606C344.781 224.449 344.922 224.308 344.922 224.133V222.82C344.922 222.645 344.781 222.503 344.606 222.503Z" fill="#3F3D56"/>
<path d="M351.086 222.503H348.479C348.304 222.503 348.163 222.645 348.163 222.82V224.133C348.163 224.308 348.304 224.449 348.479 224.449H351.086C351.261 224.449 351.403 224.308 351.403 224.133V222.82C351.403 222.645 351.261 222.503 351.086 222.503Z" fill="#3F3D56"/>
<path d="M357.566 222.503H354.959C354.784 222.503 354.643 222.645 354.643 222.82V224.133C354.643 224.308 354.784 224.449 354.959 224.449H357.566C357.741 224.449 357.883 224.308 357.883 224.133V222.82C357.883 222.645 357.741 222.503 357.566 222.503Z" fill="#3F3D56"/>
<path d="M364.047 222.503H361.439C361.265 222.503 361.123 222.645 361.123 222.82V224.133C361.123 224.308 361.265 224.449 361.439 224.449H364.047C364.222 224.449 364.363 224.308 364.363 224.133V222.82C364.363 222.645 364.222 222.503 364.047 222.503Z" fill="#3F3D56"/>
<path d="M370.527 222.503H367.92C367.745 222.503 367.604 222.645 367.604 222.82V224.133C367.604 224.308 367.745 224.449 367.92 224.449H370.527C370.702 224.449 370.844 224.308 370.844 224.133V222.82C370.844 222.645 370.702 222.503 370.527 222.503Z" fill="#3F3D56"/>
<path d="M377.008 222.503H374.4C374.226 222.503 374.084 222.645 374.084 222.82V224.133C374.084 224.308 374.226 224.449 374.4 224.449H377.008C377.183 224.449 377.324 224.308 377.324 224.133V222.82C377.324 222.645 377.183 222.503 377.008 222.503Z" fill="#3F3D56"/>
<path d="M383.488 222.503H380.881C380.706 222.503 380.564 222.645 380.564 222.82V224.133C380.564 224.308 380.706 224.449 380.881 224.449H383.488C383.663 224.449 383.805 224.308 383.805 224.133V222.82C383.805 222.645 383.663 222.503 383.488 222.503Z" fill="#3F3D56"/>
<path d="M340.07 226.396H314.781C314.606 226.396 314.464 226.538 314.464 226.712V228.025C314.464 228.2 314.606 228.342 314.781 228.342H340.07C340.244 228.342 340.386 228.2 340.386 228.025V226.712C340.386 226.538 340.244 226.396 340.07 226.396Z" fill="#3F3D56"/>
<path d="M408.526 377.567L403.529 369.529L402.531 374.123C402.356 374.927 402.181 375.744 402.019 376.555C400.6 375.342 399.09 374.22 397.613 373.143C393.077 369.847 388.542 366.547 384.01 363.243L385.429 371.482C386.304 376.555 387.218 381.732 389.383 386.371C389.622 386.897 389.882 387.416 390.16 387.922H411.248C411.417 387.452 411.535 386.964 411.598 386.468C411.603 386.436 411.605 386.404 411.604 386.371C411.935 383.225 410.198 380.26 408.526 377.567Z" fill="#F0F0F0"/>
<path d="M123.387 377.567L118.391 369.529L117.393 374.123C117.218 374.927 117.043 375.744 116.881 376.555C115.462 375.342 113.952 374.22 112.474 373.143C107.938 369.847 103.404 366.547 98.8716 363.243L100.291 371.482C101.166 376.555 102.08 381.732 104.244 386.371C104.484 386.897 104.743 387.416 105.022 387.922H126.109C126.279 387.452 126.396 386.964 126.459 386.468C126.464 386.436 126.466 386.404 126.465 386.371C126.796 383.225 125.059 380.26 123.387 377.567Z" fill="#F0F0F0"/>
<path d="M524.228 388.801L345.53 389C345.326 389 345.13 388.919 344.985 388.774C344.84 388.629 344.759 388.432 344.759 388.227C344.759 388.023 344.84 387.826 344.985 387.681C345.13 387.536 345.326 387.455 345.53 387.455L524.228 387.256C524.433 387.256 524.629 387.337 524.774 387.482C524.919 387.627 525 387.823 525 388.028C525 388.233 524.919 388.429 524.774 388.574C524.629 388.719 524.433 388.801 524.228 388.801Z" fill="#CACACA"/>
<path d="M411.816 69.6438H246.355C246.183 69.64 246.019 69.5689 245.899 69.4458C245.779 69.3227 245.711 69.1573 245.711 68.9851C245.711 68.8129 245.779 68.6475 245.899 68.5244C246.019 68.4013 246.183 68.3302 246.355 68.3264H411.816C411.987 68.3302 412.151 68.4013 412.271 68.5244C412.392 68.6475 412.459 68.8129 412.459 68.9851C412.459 69.1573 412.392 69.3227 412.271 69.4458C412.151 69.5689 411.987 69.64 411.816 69.6438Z" fill="#CACACA"/>
<path d="M257.618 64.9631C259.748 64.9631 261.474 63.1963 261.474 61.0167C261.474 58.8372 259.748 57.0703 257.618 57.0703C255.488 57.0703 253.762 58.8372 253.762 61.0167C253.762 63.1963 255.488 64.9631 257.618 64.9631Z" fill="#3F3D56"/>
<path d="M270.939 64.9631C273.069 64.9631 274.795 63.1963 274.795 61.0167C274.795 58.8372 273.069 57.0703 270.939 57.0703C268.809 57.0703 267.083 58.8372 267.083 61.0167C267.083 63.1963 268.809 64.9631 270.939 64.9631Z" fill="#3F3D56"/>
<path d="M284.26 64.9631C286.39 64.9631 288.117 63.1963 288.117 61.0167C288.117 58.8372 286.39 57.0703 284.26 57.0703C282.131 57.0703 280.404 58.8372 280.404 61.0167C280.404 63.1963 282.131 64.9631 284.26 64.9631Z" fill="#3F3D56"/>
<path d="M403.795 58.0485H394.332C394.145 58.0522 393.966 58.1294 393.835 58.2635C393.703 58.3976 393.63 58.578 393.63 58.7658C393.63 58.9535 393.703 59.1338 393.835 59.268C393.966 59.4021 394.145 59.4793 394.332 59.483H403.795C403.982 59.4793 404.161 59.4021 404.292 59.268C404.424 59.1338 404.497 58.9535 404.497 58.7658C404.497 58.578 404.424 58.3976 404.292 58.2635C404.161 58.1294 403.982 58.0522 403.795 58.0485Z" fill="#3F3D56"/>
<path d="M403.795 60.741H394.332C394.145 60.7447 393.966 60.8219 393.835 60.956C393.703 61.0901 393.63 61.2705 393.63 61.4583C393.63 61.6461 393.703 61.8264 393.835 61.9605C393.966 62.0946 394.145 62.1718 394.332 62.1755H403.795C403.982 62.1718 404.161 62.0946 404.292 61.9605C404.424 61.8264 404.497 61.6461 404.497 61.4583C404.497 61.2705 404.424 61.0901 404.292 60.956C404.161 60.8219 403.982 60.7447 403.795 60.741Z" fill="#3F3D56"/>
<path d="M403.795 63.4299H394.332C394.145 63.4337 393.966 63.5109 393.835 63.645C393.703 63.7791 393.63 63.9594 393.63 64.1472C393.63 64.335 393.703 64.5153 393.835 64.6494C393.966 64.7835 394.145 64.8608 394.332 64.8645H403.795C403.982 64.8608 404.161 64.7835 404.292 64.6494C404.424 64.5153 404.497 64.335 404.497 64.1472C404.497 63.9594 404.424 63.7791 404.292 63.645C404.161 63.5109 403.982 63.4337 403.795 63.4299Z" fill="#3F3D56"/>
<path d="M342.445 105.532H321.769C320.216 105.532 318.958 106.792 318.958 108.347C318.958 109.901 320.216 111.162 321.769 111.162H342.445C343.997 111.162 345.256 109.901 345.256 108.347C345.256 106.792 343.997 105.532 342.445 105.532Z" fill="#0074D9"/>
<path d="M355.801 116.791H308.413C306.86 116.791 305.601 118.052 305.601 119.606C305.601 121.161 306.86 122.421 308.413 122.421H355.801C357.354 122.421 358.612 121.161 358.612 119.606C358.612 118.052 357.354 116.791 355.801 116.791Z" fill="#E6E6E6"/>
<path d="M355.801 128.051H308.413C306.86 128.051 305.601 129.311 305.601 130.866C305.601 132.421 306.86 133.681 308.413 133.681H355.801C357.354 133.681 358.612 132.421 358.612 130.866C358.612 129.311 357.354 128.051 355.801 128.051Z" fill="#E6E6E6"/>
<path d="M263.269 171.252C263.273 173.57 262.86 175.871 262.051 178.044H243.873C243.047 178.043 242.255 177.713 241.67 177.128C241.086 176.544 240.757 175.751 240.756 174.923V152.035C241.772 151.871 242.799 151.788 243.828 151.789C246.381 151.789 248.909 152.292 251.268 153.27C253.626 154.248 255.77 155.682 257.575 157.489C259.38 159.296 260.812 161.442 261.789 163.803C262.766 166.165 263.269 168.696 263.269 171.252Z" fill="#E6E6E6"/>
<path d="M227.404 189.347C227.132 197.23 210.386 218.496 201.579 221.545C200.082 222.064 199.207 222.35 199.207 222.35L196.142 221.422L159.022 210.179C152.522 214.007 133.133 215.953 117.223 216.926C104.561 217.698 94.0948 217.854 94.0948 217.854C90.3591 246.296 82.997 273.503 70.5774 298.987L55.6724 296.392L69.7534 201.466C70.0574 199.416 70.9565 197.501 72.3388 195.958C73.7212 194.416 75.5258 193.314 77.5286 192.789L178.82 166.265C178.82 166.265 184.406 165.253 196.188 170.942C215.583 180.31 227.598 183.612 227.404 189.347Z" fill="#2F2E41"/>
<path d="M192.573 368.462L185.004 372.409L166.19 345.06L177.362 339.233L192.573 368.462Z" fill="#A0616A"/>
<path d="M196.954 376.228L173.677 388.369L173.524 388.074C172.272 385.668 172.026 382.864 172.84 380.277C173.654 377.689 175.461 375.532 177.863 374.278L180.435 368.831L190.049 367.923L192.08 366.863L196.954 376.228Z" fill="#2F2E41"/>
<path d="M208.049 187.822C211.446 194.939 206.412 221.545 200.009 228.323L198.309 229.48L197.735 229.78C193.894 242.786 152.677 280.826 152.677 280.826C166.599 298.582 175.276 320.412 180.812 344.681L168.444 350.402L123.129 282.678C121.942 280.904 121.319 278.812 121.342 276.677C121.366 274.542 122.034 272.464 123.259 270.717L141.746 244.355L171.87 185.941C193.395 185.276 205.574 182.646 208.049 187.822Z" fill="#2F2E41"/>
<path d="M226.362 192.116C161.303 182.211 155.376 173.304 154.74 173.462L154.175 173.603L163.6 157.653L167.058 153.565L164.399 151.662L165.454 143.758C166.277 140.556 166.943 136.785 166.588 136.28C165.855 135.467 164.222 133.99 164.206 133.975L163.996 133.785L166.446 128.062L169.728 82.3026L178.188 65.418L195.65 55.0548L211.041 55.2413L224.567 67.8008C230.309 70.5663 234.98 75.1511 237.854 80.8445C240.729 86.5379 241.647 93.0217 240.465 99.2905L233.595 135.62L231.068 154.345L235.192 158.473L232.626 161.042L231.1 169.79L232.663 179.697C233.884 188.699 228.453 189.235 228.052 189.347C228.028 189.354 226.848 192.446 226.798 192.446C226.673 192.446 226.663 192.162 226.362 192.116Z" fill="#0074D9"/>
<path d="M222.946 228.235C223.689 227.509 224.264 226.628 224.63 225.655C224.996 224.682 225.145 223.641 225.066 222.604C224.986 221.567 224.681 220.561 224.171 219.655C223.661 218.749 222.959 217.967 222.114 217.362L229.25 193.12L216.704 196.956L211.85 219.388C210.93 220.877 210.586 222.651 210.886 224.376C211.185 226.101 212.105 227.655 213.473 228.746C214.841 229.836 216.561 230.387 218.307 230.293C220.053 230.198 221.704 229.466 222.946 228.235Z" fill="#A0616A"/>
<path d="M224.105 211.415L210.543 205.325L221.422 160.1L201.163 110.868C200.162 108.435 199.708 105.81 199.833 103.182C199.959 100.553 200.662 97.9837 201.891 95.6571C203.12 93.3305 204.845 91.3033 206.945 89.7193C209.044 88.1354 211.467 87.0337 214.039 86.4923C218.688 85.5197 223.531 86.4327 227.508 89.031C231.484 91.6292 234.269 95.7006 235.25 100.352L247.571 159.042L224.105 211.415Z" fill="#0074D9"/>
<path d="M170.558 38.6618L175.515 18.0226C175.685 17.3167 176.128 16.7072 176.747 16.3279C177.366 15.9487 178.109 15.8306 178.815 15.9996L183.308 17.0812C184.013 17.2518 184.622 17.6954 185.001 18.3148C185.38 18.9341 185.498 19.6787 185.329 20.385L180.372 41.0242C180.201 41.7302 179.758 42.3396 179.14 42.7189C178.521 43.0982 177.777 43.2162 177.072 43.0472L172.578 41.9656C171.873 41.7951 171.264 41.3514 170.886 40.7321C170.507 40.1127 170.389 39.3682 170.558 38.6618Z" fill="#3F3D56"/>
<path d="M179.088 17.1789C178.707 17.0878 178.307 17.1515 177.973 17.3558C177.64 17.5602 177.401 17.8886 177.309 18.269L172.352 38.9083C172.261 39.2889 172.325 39.6901 172.529 40.0239C172.733 40.3576 173.061 40.5967 173.441 40.6886L177.934 41.7702C178.314 41.8613 178.715 41.7976 179.049 41.5933C179.382 41.3889 179.621 41.0605 179.713 40.6801L184.67 20.0408C184.761 19.6602 184.697 19.259 184.493 18.9252C184.289 18.5914 183.961 18.3524 183.581 18.2604L179.088 17.1789Z" fill="#0074D9"/>
<path d="M199.877 51.6776C212.031 51.6776 221.883 41.8144 221.883 29.6475C221.883 17.4805 212.031 7.61731 199.877 7.61731C187.723 7.61731 177.871 17.4805 177.871 29.6475C177.871 41.8144 187.723 51.6776 199.877 51.6776Z" fill="#A0616A"/>
<path d="M210.027 44.3777L210.819 39.9156C211.307 36.9565 210.8 33.9193 209.38 31.2787C207.96 28.6382 205.706 26.5432 202.97 25.3214L202.29 24.9923L202.85 24.6926C203.029 24.5973 203.168 24.4425 203.244 24.2552C203.32 24.0679 203.328 23.8599 203.267 23.6672C203.206 23.4745 203.079 23.3093 202.909 23.2003C202.739 23.0913 202.536 23.0453 202.336 23.0704L201.7 23.1496C201.266 23.2027 200.826 23.1292 200.434 22.9379C200.041 22.7466 199.712 22.4457 199.486 22.0714C199.26 21.6971 199.148 21.2655 199.161 20.8285C199.175 20.3914 199.315 19.9677 199.563 19.6084C197.366 20.5196 195.023 21.0242 192.646 21.0975C189.206 21.0716 186.217 19.3929 185.031 16.8207C184.743 16.1812 184.565 15.4971 184.506 14.7978C180.873 16.2312 178.913 20.5279 178.893 20.5729L177.819 22.9728L178.279 20.3835C178.293 20.3046 179.699 12.4625 181.738 7.59716C183.931 2.36594 193.058 -0.39128 206.768 0.044918C220.161 0.466227 223.132 15.7525 223.387 17.2316C227.191 20.8964 225.809 27.835 224.639 31.662C222.744 37.8597 219.004 44.0267 216.944 44.3514C216.759 44.386 216.568 44.3653 216.396 44.2917C216.223 44.2182 216.076 44.0951 215.973 43.938C215.767 43.6096 215.493 43.3289 215.17 43.1143C214.848 42.8998 214.483 42.7563 214.101 42.6934C212.436 42.4564 210.717 43.823 210.7 43.8366L210.027 44.3777Z" fill="#2F2E41"/>
<path d="M179.47 388.801L0.771824 389C0.567567 388.999 0.371882 388.918 0.227659 388.773C0.0834354 388.628 0.00244141 388.432 0.00244141 388.227C0.00244141 388.023 0.0834354 387.827 0.227659 387.682C0.371882 387.537 0.567567 387.456 0.771824 387.455L179.47 387.256C179.674 387.256 179.871 387.337 180.015 387.482C180.16 387.627 180.241 387.823 180.241 388.028C180.241 388.233 180.16 388.429 180.015 388.574C179.871 388.719 179.674 388.801 179.47 388.801Z" fill="#CACACA"/>
</g>
<defs>
<clipPath id="clip0_25_196">
<rect width="525" height="389" fill="white"/>
</clipPath>
</defs>
</svg>
