<svg width="308" height="52" viewBox="0 0 308 52" fill="none" xmlns="http://www.w3.org/2000/svg">
<g clip-path="url(#clip0_25_283)">
<g clip-path="url(#clip1_25_283)">
<g clip-path="url(#clip2_25_283)">
<g clip-path="url(#clip3_25_283)">
<g clip-path="url(#clip4_25_283)">
<g clip-path="url(#clip5_25_283)">
<path d="M14.1447 43.456C13.5565 43.456 13.0663 43.2599 12.6741 42.8677C12.282 42.4756 12.0859 42.0017 12.0859 41.4462V11.1524H16.2525V41.4462C16.2525 42.0017 16.0564 42.4756 15.6643 42.8677C15.2721 43.2599 14.7656 43.456 14.1447 43.456ZM25.5661 12.8681H2.77228C2.21674 12.8681 1.75269 12.6949 1.38014 12.3485C1.00106 12.0086 0.811523 11.5609 0.811523 11.0054C0.811523 10.4498 1.00106 9.99884 1.38014 9.65244C1.75269 9.31258 2.21674 9.14265 2.77228 9.14265H25.5661C26.1217 9.14265 26.5955 9.31258 26.9877 9.65244C27.3798 9.99884 27.5759 10.4498 27.5759 11.0054C27.5759 11.5936 27.3798 12.0511 26.9877 12.3779C26.5955 12.7047 26.1217 12.8681 25.5661 12.8681ZM38.3601 43.9461C35.7457 43.9461 33.4582 43.3906 31.4974 42.2795C29.5367 41.1684 28.0171 39.639 26.9387 37.6913C25.8602 35.7502 25.321 33.5051 25.321 30.9561C25.321 28.113 25.8831 25.6849 27.0073 23.6719C28.138 21.6654 29.602 20.1294 31.3994 19.0641C33.1968 18.0053 35.1085 17.4759 37.1346 17.4759C38.6705 17.4759 40.1313 17.7537 41.5169 18.3092C42.9091 18.8648 44.1509 19.6719 45.2424 20.7307C46.3404 21.7961 47.2162 23.0706 47.8698 24.5542C48.5234 26.0444 48.8665 27.7045 48.8992 29.5346C48.8665 30.0574 48.6541 30.4986 48.2619 30.8581C47.8698 31.2175 47.4123 31.3973 46.8894 31.3973H27.5269L26.6445 28.015H45.5169L44.7326 28.7012V27.6228C44.6345 26.283 44.1999 25.1294 43.4287 24.1621C42.664 23.2013 41.7261 22.4595 40.615 21.9366C39.5039 21.4137 38.3438 21.1523 37.1346 21.1523C36.1542 21.1523 35.1804 21.3222 34.2131 21.6621C33.2523 22.0085 32.3863 22.5641 31.6151 23.3287C30.8504 24.1 30.2393 25.0902 29.7818 26.2993C29.3243 27.5084 29.0955 28.9627 29.0955 30.662C29.0955 32.5574 29.4778 34.224 30.2425 35.6619C31.0138 37.0998 32.0857 38.2338 33.4582 39.0639C34.8307 39.9004 36.4157 40.3187 38.213 40.3187C39.3895 40.3187 40.4026 40.1717 41.2522 39.8776C42.1019 39.5835 42.8274 39.2142 43.4287 38.7697C44.0365 38.3318 44.5528 37.8841 44.9777 37.4266C45.4025 37.1325 45.8273 36.9854 46.2522 36.9854C46.7097 36.9854 47.1018 37.1488 47.4286 37.4756C47.7554 37.8024 47.9188 38.1946 47.9188 38.6521C47.9188 39.2076 47.6574 39.6978 47.1345 40.1227C46.1868 41.1357 44.9352 42.0246 43.3796 42.7893C41.8306 43.5605 40.1575 43.9461 38.3601 43.9461ZM75.3694 17.868C75.9577 17.868 76.4315 18.0543 76.791 18.4268C77.1505 18.8059 77.3302 19.2732 77.3302 19.8288V41.4462C77.3302 42.0017 77.1407 42.4756 76.7616 42.8677C76.3891 43.2599 75.925 43.456 75.3694 43.456C74.8139 43.456 74.3466 43.2599 73.9675 42.8677C73.595 42.4756 73.4087 42.0017 73.4087 41.4462V36.7894L74.3401 36.6913C74.3401 37.4103 74.095 38.1946 73.6048 39.0442C73.1146 39.8939 72.4446 40.6847 71.595 41.4168C70.7453 42.1553 69.7486 42.7599 68.6048 43.2305C67.4611 43.7076 66.2192 43.9461 64.8794 43.9461C62.6572 43.9461 60.6539 43.3645 58.8696 42.2011C57.0919 41.0442 55.6965 39.4691 54.6834 37.4756C53.6704 35.4822 53.1638 33.211 53.1638 30.662C53.1638 28.0803 53.6769 25.7993 54.703 23.8189C55.7357 21.8451 57.1246 20.2928 58.8696 19.1621C60.6213 18.038 62.5918 17.4759 64.7813 17.4759C66.1866 17.4759 67.4937 17.7046 68.7029 18.1621C69.912 18.6197 70.9643 19.2406 71.8597 20.0249C72.7616 20.8092 73.4577 21.6752 73.9479 22.6229C74.4381 23.5706 74.6832 24.5183 74.6832 25.466L73.4087 25.1719V19.8288C73.4087 19.2732 73.595 18.8059 73.9675 18.4268C74.3466 18.0543 74.8139 17.868 75.3694 17.868ZM65.2715 40.3187C66.9055 40.3187 68.3499 39.8939 69.6048 39.0442C70.8662 38.1946 71.8564 37.041 72.5754 35.5835C73.2943 34.1325 73.6538 32.492 73.6538 30.662C73.6538 28.8646 73.2943 27.2372 72.5754 25.7797C71.8564 24.3287 70.8662 23.185 69.6048 22.3484C68.3499 21.5183 66.9055 21.1033 65.2715 21.1033C63.6702 21.1033 62.2389 21.5118 60.9775 22.3288C59.7226 23.1457 58.7357 24.2732 58.0167 25.7111C57.2978 27.149 56.9383 28.7993 56.9383 30.662C56.9383 32.492 57.2978 34.1325 58.0167 35.5835C58.7357 37.041 59.7226 38.1946 60.9775 39.0442C62.2389 39.8939 63.6702 40.3187 65.2715 40.3187ZM95.6045 17.4759C97.2711 17.4759 98.7744 17.6556 100.114 18.0151C101.454 18.3746 102.516 18.8647 103.3 19.4857C104.085 20.1066 104.477 20.8092 104.477 21.5935C104.477 22.0183 104.34 22.4268 104.065 22.819C103.784 23.2111 103.382 23.4072 102.859 23.4072C102.434 23.4072 102.085 23.3255 101.81 23.1621C101.529 22.9987 101.268 22.7863 101.026 22.5248C100.778 22.2634 100.441 22.0346 100.016 21.8386C99.6241 21.6098 99.0522 21.4301 98.3005 21.2994C97.5489 21.1686 96.781 21.1033 95.9967 21.1033C94.232 21.1033 92.6634 21.5281 91.2908 22.3778C89.9183 23.2274 88.8497 24.3712 88.085 25.8091C87.3138 27.247 86.9281 28.881 86.9281 30.711C86.9281 32.5411 87.3039 34.175 88.0556 35.6129C88.8072 37.0508 89.8529 38.1946 91.1928 39.0442C92.5326 39.8939 94.0849 40.3187 95.8496 40.3187C96.9934 40.3187 97.9019 40.2207 98.5751 40.0246C99.2417 39.8286 99.8201 39.5998 100.31 39.3384C100.866 39.0116 101.301 38.6848 101.614 38.358C101.921 38.0312 102.353 37.8678 102.908 37.8678C103.464 37.8678 103.889 38.0475 104.183 38.407C104.477 38.7665 104.624 39.2076 104.624 39.7305C104.624 40.3187 104.216 40.9396 103.399 41.5932C102.582 42.2468 101.48 42.8024 100.095 43.2599C98.7025 43.7174 97.1404 43.9461 95.4084 43.9461C92.9248 43.9461 90.7516 43.3645 88.8889 42.2011C87.0262 41.0442 85.5817 39.4593 84.5556 37.4462C83.5229 35.4397 83.0066 33.1946 83.0066 30.711C83.0066 28.2274 83.5393 25.9888 84.6046 23.9954C85.6635 22.002 87.1406 20.417 89.036 19.2406C90.9314 18.0641 93.1209 17.4759 95.6045 17.4759ZM122.026 17.721C124.183 17.721 125.892 18.185 127.153 19.1131C128.408 20.0477 129.307 21.2896 129.849 22.8386C130.385 24.3941 130.653 26.1196 130.653 28.015V41.4462C130.653 42.0017 130.467 42.4756 130.094 42.8677C129.715 43.2599 129.248 43.456 128.692 43.456C128.137 43.456 127.673 43.2599 127.3 42.8677C126.921 42.4756 126.732 42.0017 126.732 41.4462V28.015C126.732 26.7732 126.552 25.6523 126.192 24.6523C125.833 23.6588 125.238 22.8582 124.408 22.2503C123.571 21.649 122.434 21.3484 120.996 21.3484C119.657 21.3484 118.431 21.649 117.32 22.2503C116.209 22.8582 115.326 23.6588 114.673 24.6523C114.019 25.6523 113.693 26.7732 113.693 28.015V41.4462C113.693 42.0017 113.506 42.4756 113.134 42.8677C112.755 43.2599 112.287 43.456 111.732 43.456C111.176 43.456 110.712 43.2599 110.34 42.8677C109.961 42.4756 109.771 42.0017 109.771 41.4462V9.14265C109.771 8.5871 109.961 8.11978 110.34 7.7407C110.712 7.36816 111.176 7.18188 111.732 7.18188C112.32 7.18188 112.794 7.36816 113.153 7.7407C113.513 8.11978 113.693 8.5871 113.693 9.14265V23.7993L112.712 24.8778C112.876 24.0281 113.235 23.1686 113.791 22.2993C114.346 21.4366 115.049 20.6621 115.898 19.9758C116.748 19.2896 117.696 18.7406 118.741 18.3288C119.787 17.9236 120.882 17.721 122.026 17.721ZM140.604 9.09363C140.898 9.09363 141.215 9.17533 141.555 9.33872C141.901 9.50212 142.173 9.71453 142.369 9.97597L155.359 29.6326L153.643 29.5836L166.78 9.97597C167.205 9.35506 167.761 9.06095 168.447 9.09363C168.97 9.12631 169.427 9.32238 169.819 9.68185C170.211 10.0413 170.408 10.5152 170.408 11.1034V41.4462C170.408 42.0017 170.211 42.4756 169.819 42.8677C169.427 43.2599 168.937 43.456 168.349 43.456C167.76 43.456 167.27 43.2599 166.878 42.8677C166.486 42.4756 166.29 42.0017 166.29 41.4462V14.8289L167.515 15.0739L155.947 32.6718C155.751 32.9005 155.512 33.0966 155.231 33.26C154.957 33.4234 154.672 33.5051 154.378 33.5051C154.084 33.5051 153.79 33.4234 153.496 33.26C153.202 33.0966 152.957 32.9005 152.761 32.6718L141.339 15.0739L142.369 13.7995V41.4462C142.369 42.0017 142.189 42.4756 141.829 42.8677C141.47 43.2599 141.012 43.456 140.457 43.456C139.901 43.456 139.45 43.2599 139.104 42.8677C138.764 42.4756 138.594 42.0017 138.594 41.4462V11.1034C138.594 10.5805 138.78 10.1132 139.153 9.70146C139.532 9.29624 140.016 9.09363 140.604 9.09363ZM198.937 17.868C199.525 17.868 199.999 18.0543 200.358 18.4268C200.718 18.8059 200.897 19.2732 200.897 19.8288V41.4462C200.897 42.0017 200.708 42.4756 200.329 42.8677C199.956 43.2599 199.492 43.456 198.937 43.456C198.381 43.456 197.914 43.2599 197.535 42.8677C197.162 42.4756 196.976 42.0017 196.976 41.4462V36.7894L197.907 36.6913C197.907 37.4103 197.662 38.1946 197.172 39.0442C196.682 39.8939 196.012 40.6847 195.162 41.4168C194.312 42.1553 193.316 42.7599 192.172 43.2305C191.028 43.7076 189.786 43.9461 188.447 43.9461C186.224 43.9461 184.221 43.3645 182.437 42.2011C180.659 41.0442 179.264 39.4691 178.251 37.4756C177.238 35.4822 176.731 33.211 176.731 30.662C176.731 28.0803 177.244 25.7993 178.27 23.8189C179.303 21.8451 180.692 20.2928 182.437 19.1621C184.188 18.038 186.159 17.4759 188.348 17.4759C189.754 17.4759 191.061 17.7046 192.27 18.1621C193.479 18.6197 194.531 19.2406 195.427 20.0249C196.329 20.8092 197.025 21.6752 197.515 22.6229C198.005 23.5706 198.25 24.5183 198.25 25.466L196.976 25.1719V19.8288C196.976 19.2732 197.162 18.8059 197.535 18.4268C197.914 18.0543 198.381 17.868 198.937 17.868ZM188.839 40.3187C190.473 40.3187 191.917 39.8939 193.172 39.0442C194.433 38.1946 195.424 37.041 196.143 35.5835C196.861 34.1325 197.221 32.492 197.221 30.662C197.221 28.8646 196.861 27.2372 196.143 25.7797C195.424 24.3287 194.433 23.185 193.172 22.3484C191.917 21.5183 190.473 21.1033 188.839 21.1033C187.237 21.1033 185.806 21.5118 184.545 22.3288C183.29 23.1457 182.303 24.2732 181.584 25.7111C180.865 27.149 180.505 28.7993 180.505 30.662C180.505 32.492 180.865 34.1325 181.584 35.5835C182.303 37.041 183.29 38.1946 184.545 39.0442C185.806 39.8939 187.237 40.3187 188.839 40.3187ZM207.162 18.2602H218.681C219.204 18.2602 219.639 18.4399 219.985 18.7994C220.325 19.1589 220.495 19.5837 220.495 20.0739C220.495 20.5968 220.325 21.0281 219.985 21.368C219.639 21.7144 219.204 21.8876 218.681 21.8876H207.162C206.672 21.8876 206.247 21.7079 205.888 21.3484C205.528 20.9889 205.348 20.5477 205.348 20.0249C205.348 19.5347 205.528 19.1164 205.888 18.77C206.247 18.4301 206.672 18.2602 207.162 18.2602ZM212.309 11.5936C212.865 11.5936 213.322 11.7799 213.682 12.1524C214.041 12.5315 214.221 12.9988 214.221 13.5544V37.2305C214.221 38.0148 214.335 38.6031 214.564 38.9952C214.793 39.3874 215.097 39.6553 215.476 39.7991C215.848 39.9495 216.214 40.0246 216.574 40.0246C216.9 40.0246 217.188 39.9658 217.436 39.8482C217.678 39.737 217.963 39.6815 218.289 39.6815C218.616 39.6815 218.92 39.8351 219.201 40.1423C219.476 40.456 219.613 40.8579 219.613 41.3481C219.613 41.9364 219.27 42.4331 218.583 42.8383C217.897 43.2501 217.129 43.456 216.28 43.456C215.822 43.456 215.26 43.4233 214.593 43.3579C213.92 43.2926 213.257 43.0801 212.603 42.7207C211.95 42.3612 211.404 41.7632 210.966 40.9266C210.521 40.0965 210.299 38.9299 210.299 37.4266V13.5544C210.299 12.9988 210.495 12.5315 210.887 12.1524C211.28 11.7799 211.753 11.5936 212.309 11.5936ZM237.162 43.9461C234.547 43.9461 232.26 43.3906 230.299 42.2795C228.338 41.1684 226.819 39.639 225.74 37.6913C224.662 35.7502 224.123 33.5051 224.123 30.9561C224.123 28.113 224.688 25.6849 225.819 23.6719C226.943 21.6654 228.404 20.1294 230.201 19.0641C231.998 18.0053 233.91 17.4759 235.936 17.4759C237.472 17.4759 238.936 17.7537 240.328 18.3092C241.714 18.8648 242.956 19.6719 244.054 20.7307C245.145 21.7961 246.018 23.0706 246.671 24.5542C247.325 26.0444 247.668 27.7045 247.701 29.5346C247.668 30.0574 247.456 30.4986 247.063 30.8581C246.671 31.2175 246.214 31.3973 245.691 31.3973H226.328L225.446 28.015H244.318L243.534 28.7012V27.6228C243.436 26.283 243.005 25.1294 242.24 24.1621C241.469 23.2013 240.528 22.4595 239.417 21.9366C238.305 21.4137 237.145 21.1523 235.936 21.1523C234.956 21.1523 233.985 21.3222 233.024 21.6621C232.057 22.0085 231.191 22.5641 230.426 23.3287C229.655 24.1 229.041 25.0902 228.583 26.2993C228.126 27.5084 227.897 28.9627 227.897 30.662C227.897 32.5574 228.283 34.224 229.054 35.6619C229.819 37.0998 230.887 38.2338 232.26 39.0639C233.632 39.9004 235.217 40.3187 237.015 40.3187C238.191 40.3187 239.204 40.1717 240.054 39.8776C240.903 39.5835 241.632 39.2142 242.24 38.7697C242.841 38.3318 243.354 37.8841 243.779 37.4266C244.204 37.1325 244.629 36.9854 245.054 36.9854C245.511 36.9854 245.903 37.1488 246.23 37.4756C246.557 37.8024 246.72 38.1946 246.72 38.6521C246.72 39.2076 246.459 39.6978 245.936 40.1227C244.988 41.1357 243.74 42.0246 242.191 42.7893C240.635 43.5605 238.959 43.9461 237.162 43.9461Z" fill="white"/>
</g>
</g>
</g>
</g>
<g clip-path="url(#clip6_25_283)">
<g clip-path="url(#clip7_25_283)">
<path d="M271.632 50.9681C263.214 50.9681 256.39 44.1441 256.39 35.7257V15.4024C256.39 6.98396 263.214 0.159912 271.632 0.159912H291.955C300.374 0.159912 307.198 6.98396 307.198 15.4024V35.7257C307.198 44.1441 300.374 50.9681 291.955 50.9681H271.632Z" fill="white"/>
<g clip-path="url(#clip8_25_283)">
<g clip-path="url(#clip9_25_283)">
<path d="M274.941 17.65C276.025 17.65 276.904 16.7711 276.904 15.6868C276.904 14.6026 276.025 13.7236 274.941 13.7236C273.857 13.7236 272.978 14.6026 272.978 15.6868C272.978 16.7711 273.857 17.65 274.941 17.65Z" fill="#0074D9"/>
<path d="M271.195 40.8064H272.926L274.657 29.8437L276.4 40.7989H278.136L277.172 23.486H277.582L277.855 26.3211L279.098 26.273L282.043 21.7956H280.937L279.12 23.7991L278.472 18.6125L271.035 18.6308L270.044 29.4842L271.227 30.4137L271.685 23.4948L272.083 23.5053L271.195 40.8064Z" fill="#0074D9"/>
<path d="M287.273 12.4329C285.549 12.4329 284.147 13.8352 284.147 15.5591C284.147 17.2826 285.549 18.6849 287.273 18.6849C288.996 18.6849 290.399 17.2826 290.399 15.5591C290.399 13.8352 288.996 12.4329 287.273 12.4329ZM286.387 17.4674V13.6504L289.318 15.5591L286.387 17.4674Z" fill="#0074D9"/>
<path d="M291.854 10.3215H282.691C281.762 10.3215 281.002 11.0814 281.002 12.0102V19.1082C281.002 19.7408 281.355 20.2945 281.874 20.5836L281.337 21.4169L282.273 21.4179L282.669 20.7958C282.677 20.7958 282.684 20.7968 282.691 20.7968H286.349V22.0722H283.44V22.7993H291.236V22.0722H288.327V20.7968H291.854C292.783 20.7968 293.543 20.0369 293.543 19.1082V12.0102C293.543 11.0814 292.783 10.3215 291.854 10.3215ZM292.868 19.1082C292.868 19.6666 292.413 20.1212 291.854 20.1212H283.099L283.698 19.1643H282.776L282.242 20.0112C281.91 19.845 281.678 19.5042 281.678 19.1078V12.0102C281.678 11.4514 282.133 10.9968 282.692 10.9968H291.855C292.413 10.9968 292.868 11.4514 292.868 12.0102L292.868 19.1082Z" fill="#0074D9"/>
</g>
</g>
</g>
</g>
</g>
</g>
<defs>
<clipPath id="clip0_25_283">
<rect width="306.396" height="50.8082" fill="white" transform="translate(0.801758 0.159912)"/>
</clipPath>
<clipPath id="clip1_25_283">
<rect width="306.396" height="50.8082" fill="white" transform="translate(0.801758 0.159912)"/>
</clipPath>
<clipPath id="clip2_25_283">
<rect width="246.909" height="36.7643" fill="white" transform="translate(0.801758 7.18188)"/>
</clipPath>
<clipPath id="clip3_25_283">
<rect width="246.909" height="36.7643" fill="white" transform="translate(0.801758 7.18188)"/>
</clipPath>
<clipPath id="clip4_25_283">
<rect width="246.909" height="36.7643" fill="white" transform="translate(0.801758 7.18188)"/>
</clipPath>
<clipPath id="clip5_25_283">
<rect width="246.909" height="36.7643" fill="white" transform="translate(0.801758 7.18188)"/>
</clipPath>
<clipPath id="clip6_25_283">
<rect width="50.8082" height="50.8082" fill="white" transform="translate(256.39 0.159912)"/>
</clipPath>
<clipPath id="clip7_25_283">
<rect width="50.8082" height="50.8082" fill="white" transform="translate(256.39 0.159912)"/>
</clipPath>
<clipPath id="clip8_25_283">
<rect width="23.4983" height="30.4849" fill="white" transform="translate(270.044 10.3215)"/>
</clipPath>
<clipPath id="clip9_25_283">
<rect width="23.4983" height="30.4849" fill="white" transform="translate(270.044 10.3215)"/>
</clipPath>
</defs>
</svg>
