<svg width="50" height="44" viewBox="0 0 50 44" fill="none" xmlns="http://www.w3.org/2000/svg">
<g clip-path="url(#clip0_7_2)">
<path d="M4.75616 26.694C7.2163 24.206 9.76135 21.8065 12.3935 19.5082C13.6719 18.3921 14.97 17.2995 16.2869 16.2308C17.6507 15.1241 18.6733 14.3316 20.2069 13.1846C21.3813 12.3062 22.0855 10.6761 21.2091 9.29142C20.4592 8.10662 18.6467 7.32838 17.387 8.27059C11.5234 12.6563 5.96855 17.4484 0.805555 22.6699C-0.232958 23.7202 -0.3035 25.657 0.805555 26.694C1.92402 27.7399 3.64797 27.8148 4.75616 26.694Z" fill="#0074D9"/>
<path d="M45.2408 0.811432C31.1677 13.1809 17.4534 25.9695 4.11732 39.1591C1.53307 41.715 5.48581 45.7371 8.06792 43.1833C21.404 29.9936 35.1183 17.2051 49.1915 4.83559C50.3343 3.83107 50.2031 1.84188 49.1915 0.811444C48.0582 -0.342888 46.3866 -0.195582 45.2408 0.811432Z" fill="#0074D9"/>
</g>
<defs>
<clipPath id="clip0_7_2">
<rect width="50" height="44" fill="white"/>
</clipPath>
</defs>
</svg>
